<?xml version="1.0" standalone="no"?>
<!DOCTYPE svg PUBLIC "-//W3C//DTD SVG 20010904//EN"
 "http://www.w3.org/TR/2001/REC-SVG-20010904/DTD/svg10.dtd">
<svg version="1.0" xmlns="http://www.w3.org/2000/svg"
 width="1024.000000pt" height="1024.000000pt" viewBox="0 0 1024.000000 1024.000000"
 preserveAspectRatio="xMidYMid meet">
<metadata>
Created by potrace 1.16, written by Peter Selinger 2001-2019
</metadata>
<g transform="translate(0.000000,1024.000000) scale(0.100000,-0.100000)"
fill="#000000" stroke="none">
<path d="M5112 9855 c1 -135 -2 -178 -13 -192 -8 -10 -44 -52 -80 -93 -129
-146 -335 -430 -410 -564 -23 -40 -50 -76 -62 -81 -15 -7 -24 -23 -29 -50 -9
-51 -10 -509 -1 -649 l6 -107 28 33 c15 18 58 75 96 126 37 51 94 127 126 170
163 219 305 408 328 438 l26 33 29 -43 c87 -128 213 -302 279 -386 62 -79 132
-176 264 -374 12 -17 12 -18 1 -8 -23 20 -60 15 -60 -8 0 -12 -7 -20 -16 -20
-11 0 -15 -6 -11 -19 4 -15 -2 -20 -28 -23 -31 -4 -37 1 -82 60 -26 35 -55 71
-64 80 -9 9 -39 52 -68 95 -28 42 -89 129 -134 191 -45 63 -87 123 -93 132 -9
15 -25 0 -113 -107 -56 -68 -156 -203 -222 -300 -65 -97 -135 -194 -154 -217
l-36 -41 -37 15 c-20 9 -44 22 -52 30 -12 12 -16 11 -27 -8 -7 -13 -12 -17
-13 -10 0 21 -27 45 -33 29 -3 -6 -6 -3 -6 9 -1 11 13 41 29 67 28 44 40 84
23 74 -5 -3 -34 18 -65 47 l-58 51 -5 70 c-3 39 -8 86 -11 105 -5 31 -7 33
-17 15 -13 -23 -18 -43 -18 -67 0 -10 -4 -20 -10 -23 -5 -4 -9 -16 -9 -28 0
-12 -9 -37 -21 -56 -16 -27 -23 -31 -30 -20 -6 10 -9 10 -9 2 0 -7 -11 -13
-25 -13 -14 0 -25 4 -25 8 0 4 -9 8 -19 8 -11 0 -17 -4 -15 -8 3 -4 0 -8 -5
-8 -6 0 -11 5 -11 10 0 6 -4 10 -9 10 -5 0 -12 -48 -16 -107 -4 -60 -12 -115
-17 -123 -7 -11 -8 -6 -4 17 3 17 -1 62 -9 100 -8 37 -15 94 -15 125 0 37 -9
82 -25 124 -29 77 -40 93 -73 105 -22 8 -23 13 -17 62 7 53 7 53 -72 180 -43
70 -80 127 -83 127 -3 0 -6 -363 -7 -808 -2 -444 -5 -819 -8 -833 -5 -22 -12
-26 -48 -27 -24 -2 -51 3 -62 11 -18 14 -19 33 -22 488 -4 481 -7 559 -24 559
-5 0 -9 12 -10 28 -1 23 -2 22 -10 -11 -5 -20 -10 -192 -12 -380 -3 -325 -4
-345 -23 -369 -17 -22 -21 -23 -33 -11 -11 12 -15 12 -22 2 -12 -20 -21 48
-29 229 -4 92 -8 151 -8 133 -3 -55 -21 -24 -27 44 -2 33 -7 93 -10 134 -3 41
-7 76 -8 78 -2 2 -7 -106 -10 -239 -10 -339 -26 -480 -49 -417 -7 19 -11 21
-18 9 -11 -17 -10 -17 -38 38 -13 24 -20 47 -17 52 3 4 -2 21 -10 36 -8 16
-15 36 -15 44 0 8 -5 22 -11 30 -8 12 -10 10 -8 -10 4 -72 -11 -66 -57 23 -44
83 -85 167 -105 215 -12 28 -14 -24 -14 -415 0 -247 -3 -460 -8 -475 -8 -29
-46 -41 -48 -15 0 6 -3 64 -7 127 -8 135 -5 750 3 798 5 27 10 33 26 29 16 -4
14 5 -18 61 -73 132 -105 174 -121 158 -4 -4 -10 -96 -13 -204 -3 -108 -6
-169 -7 -134 -1 34 -6 62 -12 62 -5 0 -7 -8 -3 -17 3 -10 2 -14 -3 -10 -4 4
-9 22 -11 40 -4 55 -15 97 -24 97 -5 0 -9 9 -9 20 0 14 -7 20 -24 20 -22 0
-23 3 -22 70 0 38 3 65 4 60 6 -16 49 -11 56 6 9 23 8 25 -10 22 -9 -2 -20 7
-25 20 -7 18 -5 22 10 22 11 0 21 -5 23 -11 2 -6 9 0 16 13 12 22 9 32 -38
114 -29 49 -53 91 -55 93 -2 2 -4 -453 -3 -1010 1 -558 -2 -1053 -6 -1100 l-8
-85 -39 -3 c-33 -1 -39 1 -39 19 0 11 -5 19 -12 17 -6 -1 -15 16 -19 38 -9 49
-29 919 -29 1253 0 143 -4 241 -9 238 -5 -3 -7 -16 -4 -29 3 -16 2 -18 -5 -8
-7 9 -12 10 -16 2 -4 -6 -12 -9 -17 -5 -7 4 -10 -186 -9 -572 1 -319 1 -646 1
-729 l-1 -150 -49 3 -48 4 -6 111 c-4 62 -7 299 -7 528 0 304 -3 418 -12 427
-28 28 -35 -30 -36 -333 -2 -377 -12 -665 -23 -665 -5 0 -11 1 -13 3 -8 5 -46
-37 -46 -51 0 -19 -12 -8 -18 16 -2 9 -8 152 -13 317 -9 325 -22 512 -37 527
-5 5 -14 2 -23 -8 -11 -14 -15 -85 -17 -368 -2 -193 -6 -353 -8 -355 -3 -3
-11 5 -20 17 -8 12 -21 22 -28 22 -19 0 -53 43 -107 139 -28 47 -59 95 -69
106 -20 19 -20 19 -21 -65 0 -47 -4 -171 -8 -276 -7 -214 -13 -232 -71 -219
-27 6 -44 35 -20 35 6 0 0 10 -11 21 -20 20 -21 28 -15 115 4 55 3 94 -3 94
-5 0 -10 -148 -12 -352 -3 -264 -7 -352 -16 -355 -7 -3 -34 -34 -59 -71 -26
-37 -71 -94 -100 -127 -28 -33 -77 -96 -108 -140 -109 -155 -183 -245 -202
-245 -8 0 -14 -4 -14 -8 0 -4 -14 -13 -32 -20 -25 -9 -34 -9 -39 0 -5 7 -11
10 -14 7 -11 -12 -18 -298 -8 -311 6 -7 14 -33 18 -58 4 -25 11 -47 15 -50 4
-3 -11 -37 -33 -76 -42 -74 -81 -105 -92 -76 -5 14 -7 14 -16 2 -19 -30 -31
11 -22 80 15 122 1 534 -18 554 -5 6 -17 2 -29 -9 -19 -17 -20 -28 -18 -139 2
-67 -1 -209 -6 -316 -9 -195 -9 -195 -37 -228 -16 -18 -29 -43 -29 -55 0 -12
-7 -31 -15 -41 -8 -11 -15 -32 -15 -48 0 -15 -5 -28 -11 -28 -5 0 -8 -4 -5 -9
7 -10 -19 -77 -33 -86 -22 -13 -30 43 -41 300 -7 149 -16 277 -21 285 -7 13
-9 13 -10 0 -1 -8 -5 5 -10 30 -4 27 -6 -29 -6 -140 1 -102 -2 -281 -7 -398
-4 -117 -4 -212 0 -212 9 1 125 157 209 280 41 60 55 72 55 46 0 -8 29 -46 65
-83 36 -37 77 -88 91 -112 36 -65 156 -227 259 -350 50 -59 106 -126 125 -150
19 -24 43 -53 54 -64 56 -66 86 -105 86 -114 0 -5 27 -41 60 -81 60 -71 74
-100 44 -88 -34 13 -73 52 -70 68 2 9 -5 25 -15 34 -10 9 -19 14 -19 10 0 -4
-12 2 -26 13 -34 27 -64 27 -64 2 0 -11 -6 -22 -12 -25 -7 -3 0 -2 16 1 22 4
27 3 24 -8 -3 -8 -14 -13 -24 -11 -21 4 -37 20 -99 97 -22 27 -80 95 -129 150
-49 55 -126 150 -173 210 -161 211 -188 243 -197 238 -5 -3 -6 -41 -3 -85 6
-73 10 -84 40 -117 19 -21 53 -64 77 -97 24 -32 107 -135 183 -229 188 -228
176 -213 154 -196 -19 15 -37 7 -20 -10 5 -5 8 -21 5 -35 -4 -23 -8 -25 -35
-20 -21 4 -63 41 -147 129 -64 67 -135 143 -158 169 -74 86 -97 108 -107 100
-10 -7 -228 -248 -313 -346 -34 -39 -41 -54 -36 -75 5 -21 4 -24 -7 -13 -20
18 -25 15 -50 -25 -13 -21 -32 -47 -42 -58 -20 -22 -47 -73 -47 -89 0 -5 20
10 45 34 33 33 43 49 39 64 -5 15 -3 18 11 13 12 -5 26 4 48 30 18 20 91 100
162 178 72 77 142 155 158 174 l27 33 23 -28 c12 -16 45 -56 74 -89 29 -33 94
-109 144 -170 85 -102 191 -224 231 -266 17 -18 16 -20 -8 -44 -14 -14 -22
-30 -18 -36 4 -7 -1 -10 -11 -7 -17 3 -60 47 -334 347 l-94 103 -64 -64 c-36
-35 -128 -135 -206 -223 -77 -88 -176 -196 -218 -240 -43 -44 -88 -93 -101
-110 -12 -16 -28 -34 -34 -40 -29 -25 -145 -179 -148 -199 -15 -74 -16 -90 -5
-79 6 6 13 26 15 44 2 18 9 38 14 43 13 13 13 0 -1 -27 -6 -12 22 14 63 58 40
44 132 141 204 215 72 74 169 178 215 230 46 52 123 135 170 184 l85 90 88
-90 c96 -97 212 -240 215 -264 1 -8 4 -31 5 -50 5 -51 17 -75 27 -58 6 9 9 6
9 -10 0 -15 7 -26 20 -29 11 -3 20 -9 20 -13 0 -15 -43 3 -73 29 -16 14 -76
80 -132 146 -57 66 -118 135 -137 153 l-34 32 -52 -47 c-29 -27 -96 -98 -150
-160 -108 -125 -326 -363 -477 -523 l-100 -105 0 -68 0 -67 20 27 c11 16 38
48 60 73 280 309 379 417 495 540 76 80 150 160 166 178 l29 33 100 -117 c55
-65 121 -141 148 -171 46 -53 56 -76 37 -88 -5 -3 -10 -10 -10 -15 0 -12 61
56 135 150 33 41 104 127 160 190 55 63 129 151 165 195 51 62 66 75 69 60 2
-11 15 -35 30 -54 15 -20 24 -44 23 -58 -2 -13 2 -23 8 -23 7 0 9 7 6 16 -4
12 -2 15 9 11 9 -4 47 28 111 93 53 55 103 109 111 120 l15 21 24 -21 c23 -23
52 -86 34 -75 -12 8 -13 -25 -1 -44 5 -8 18 -12 30 -8 12 3 19 2 16 -3 -3 -4
1 -10 9 -13 8 -3 29 16 55 51 38 52 52 86 33 80 -9 -4 -26 10 -114 92 l-70 65
-99 -105 c-55 -58 -97 -98 -94 -89 4 10 -3 27 -17 42 -53 57 -54 50 23 134 39
43 94 106 122 141 48 59 67 74 67 53 0 -5 22 -33 48 -63 95 -105 182 -219 176
-231 -21 -42 193 215 231 277 19 31 94 124 200 251 28 33 77 96 110 140 33 44
76 101 97 126 21 25 59 75 85 111 71 97 263 347 272 352 4 3 33 -28 64 -67 32
-40 75 -92 97 -116 47 -54 45 -55 138 78 57 82 606 816 779 1041 177 231 437
592 450 627 4 10 15 27 25 37 10 11 18 26 18 33 0 8 5 11 10 8 6 -3 10 1 10
10 0 9 9 19 20 22 10 3 43 36 71 74 l53 68 32 -47 c17 -26 58 -79 90 -117 84
-101 121 -148 194 -250 35 -49 98 -133 140 -185 42 -52 122 -156 177 -230 55
-74 151 -200 212 -280 289 -377 444 -582 529 -703 52 -73 117 -163 146 -202
69 -91 71 -95 47 -90 -11 2 -30 -8 -47 -26 -20 -21 -37 -29 -62 -29 -29 0 -33
-2 -22 -15 7 -8 9 -15 4 -15 -9 0 -106 126 -285 370 -107 145 -314 420 -376
500 -153 196 -233 301 -263 345 -19 28 -77 102 -130 165 -53 63 -130 160 -172
215 -63 83 -84 103 -120 116 -41 15 -88 11 -88 -7 0 -11 127 -178 216 -285 78
-93 282 -353 391 -499 31 -41 95 -124 143 -185 48 -60 106 -139 130 -175 24
-36 71 -96 103 -135 32 -38 71 -90 85 -115 14 -25 45 -70 68 -100 55 -73 164
-229 164 -236 0 -3 -12 6 -27 20 -28 27 -45 27 -23 1 17 -20 -10 -31 -39 -15
-12 6 -26 8 -31 5 -6 -3 -10 -2 -10 3 0 6 -8 13 -17 16 -15 6 -16 5 -1 -11 15
-18 33 -63 25 -63 -2 0 -20 24 -39 53 -19 28 -55 75 -80 102 -24 28 -97 120
-161 205 -207 274 -434 559 -577 726 -47 54 -115 135 -150 179 -105 130 -163
194 -172 189 -4 -3 -8 -26 -8 -51 0 -54 7 -65 153 -236 60 -70 159 -191 220
-270 188 -241 233 -298 319 -408 46 -58 164 -206 263 -328 99 -122 193 -239
208 -259 16 -20 40 -49 54 -64 24 -25 24 -27 6 -37 -30 -15 -74 -106 -60 -121
9 -10 9 -11 -1 -6 -7 5 -55 60 -107 124 -51 65 -135 167 -186 227 -52 61 -130
158 -174 216 -44 58 -136 173 -205 256 -69 83 -183 224 -255 314 -191 242
-215 270 -230 261 -15 -8 -184 -210 -353 -420 -65 -81 -131 -163 -147 -183
-17 -20 -66 -81 -110 -135 -44 -55 -112 -136 -152 -181 -39 -45 -116 -136
-170 -203 -175 -216 -195 -240 -202 -240 -11 0 -31 87 -31 138 0 47 3 52 189
285 104 130 211 262 238 294 27 32 81 101 121 153 39 52 105 136 146 185 40
50 71 94 68 99 -3 6 -10 2 -16 -8 -23 -39 -64 -76 -69 -64 -3 7 -6 3 -6 -8 -1
-31 -27 -50 -46 -34 -11 9 -12 17 -3 34 11 21 11 21 -11 2 -12 -11 -18 -22
-13 -25 10 -7 11 -51 1 -45 -4 2 -10 -9 -14 -25 -4 -20 -11 -28 -23 -26 -19 3
-18 22 2 45 17 19 33 49 19 35 -34 -35 -130 -153 -184 -225 -35 -47 -109 -141
-164 -210 -55 -69 -134 -171 -174 -228 -103 -144 -152 -196 -176 -188 -17 5
-21 16 -23 63 -2 32 -5 65 -8 74 -4 14 42 86 149 229 27 36 124 166 215 290
92 124 184 246 205 271 20 26 37 50 37 54 0 5 -11 -6 -24 -24 -14 -18 -43 -52
-65 -76 -23 -24 -41 -46 -41 -49 0 -3 -8 -14 -17 -24 -32 -34 -58 -67 -72 -93
-29 -57 -75 -99 -115 -106 l-38 -6 18 29 17 29 -21 -20 c-11 -11 -38 -45 -59
-76 -21 -31 -63 -87 -94 -125 -31 -38 -81 -107 -112 -154 -30 -47 -64 -95 -75
-107 l-20 -22 55 -73 c31 -40 77 -98 103 -128 46 -54 61 -74 149 -201 24 -35
69 -97 100 -137 31 -41 61 -81 66 -90 6 -9 17 -22 25 -29 13 -10 12 -11 -5 -9
-11 2 -28 -6 -37 -17 -14 -15 -25 -18 -55 -13 -21 4 -51 8 -68 10 -23 2 -41
18 -83 72 -29 38 -59 76 -66 84 -7 9 -15 24 -19 33 -3 9 -11 17 -17 17 -6 0
-9 4 -6 9 3 5 -2 15 -10 22 -9 8 -40 45 -69 84 -29 38 -87 115 -128 170 -42
55 -91 120 -109 145 -18 25 -52 68 -75 97 l-42 52 -33 -42 c-61 -78 -220 -268
-260 -310 -21 -23 -74 -91 -117 -152 -43 -60 -106 -143 -140 -182 -58 -69
-237 -310 -311 -418 -42 -63 -211 -274 -238 -298 -12 -11 -22 -14 -26 -8 -4 6
-13 8 -21 4 -8 -3 -35 4 -60 16 -25 12 -51 21 -59 21 -8 0 -16 6 -19 13 -3 9
-8 8 -23 -3 -10 -8 3 10 29 40 26 30 59 72 74 93 l26 38 -22 23 c-11 12 -18
26 -14 31 5 4 3 5 -4 1 -6 -3 -14 -2 -18 3 -6 10 -44 -26 -128 -118 -42 -46
-50 -51 -65 -40 -9 7 20 -25 66 -70 84 -86 106 -119 52 -81 -16 12 -30 25 -30
29 0 4 -21 20 -46 36 -25 16 -55 42 -66 58 -15 20 -23 25 -28 16 -5 -6 -15 -9
-24 -6 -8 3 -18 2 -21 -3 -10 -15 -25 -12 -25 6 0 8 3 13 8 11 4 -3 7 13 8 34
0 25 -4 39 -12 39 -7 0 -15 6 -17 13 -3 6 -6 -45 -6 -115 l-1 -127 -31 -23
c-17 -13 -107 -111 -200 -218 -276 -318 -504 -573 -804 -896 -183 -198 -352
-390 -450 -513 -27 -35 -69 -86 -93 -114 -46 -56 -64 -104 -55 -148 7 -35 25
-28 19 7 -3 16 0 24 10 24 8 0 13 3 12 8 -1 4 2 24 6 45 7 33 15 41 37 39 4
-1 5 7 2 18 -4 14 2 23 18 29 13 5 18 10 11 10 -7 1 -10 6 -7 11 4 6 11 8 16
5 5 -4 9 2 9 12 0 14 2 15 9 4 7 -11 15 -7 40 18 30 30 79 45 65 19 -15 -29
173 171 410 437 50 55 135 147 191 205 89 93 249 265 386 415 84 92 283 326
333 391 58 76 76 73 75 -10 -2 -132 -6 -141 -124 -277 -147 -169 -530 -585
-630 -684 -98 -98 -202 -209 -275 -294 -30 -36 -87 -101 -126 -145 -38 -45
-73 -90 -77 -101 -6 -18 -5 -18 9 1 18 27 54 21 54 -8 0 -17 3 -18 15 -8 8 7
13 16 10 20 -3 5 3 11 13 14 11 4 50 39 88 79 38 40 168 176 289 302 399 416
665 705 699 759 17 26 19 27 29 11 8 -15 12 -34 19 -112 1 -6 6 -10 12 -8 10
4 116 -114 116 -129 0 -3 54 -60 120 -126 66 -67 120 -124 120 -128 0 -4 11
-19 24 -33 13 -14 27 -39 30 -56 5 -21 17 -35 41 -46 23 -11 35 -25 40 -46 4
-18 13 -31 21 -31 21 0 124 -90 125 -109 0 -11 2 -12 6 -3 7 19 23 14 23 -7 0
-12 9 -23 22 -27 28 -8 153 -121 169 -151 7 -13 18 -23 25 -23 8 0 20 -12 28
-28 13 -25 94 -106 143 -142 74 -55 278 -242 352 -322 19 -21 38 -38 42 -38 4
0 19 21 35 47 15 26 72 94 128 152 129 135 265 285 391 431 55 63 174 199 265
301 198 223 401 463 804 949 66 80 147 178 180 218 34 40 66 71 73 70 6 -2 53
-51 105 -109 244 -278 305 -347 339 -379 82 -77 732 -802 884 -986 33 -40 99
-117 148 -172 48 -55 87 -105 87 -113 0 -7 -16 -36 -36 -64 l-35 -52 -63 66
c-91 97 -340 371 -490 540 -426 480 -927 1012 -951 1010 -6 0 -57 -59 -115
-131 -156 -195 -365 -444 -439 -523 -36 -38 -98 -108 -137 -155 -64 -77 -448
-509 -651 -734 -46 -50 -115 -129 -154 -176 -40 -47 -114 -128 -166 -181 -51
-53 -93 -102 -93 -110 0 -16 48 -72 58 -67 12 5 142 146 233 253 48 55 130
150 183 210 54 61 164 187 244 280 81 94 221 251 311 350 90 99 195 217 233
262 37 45 72 84 77 88 5 3 38 42 72 88 35 45 99 126 144 179 114 137 116 139
132 178 17 39 32 53 48 41 5 -5 21 -11 35 -14 27 -7 259 -245 435 -447 99
-113 161 -181 305 -335 123 -132 449 -515 467 -550 8 -14 18 -25 23 -25 6 0
17 -18 26 -40 10 -25 26 -44 45 -52 28 -12 129 -146 129 -170 0 -5 10 -24 22
-41 12 -17 17 -27 10 -23 -7 4 -12 3 -12 -1 0 -5 14 -17 32 -28 22 -12 28 -20
18 -23 -8 -3 -16 0 -18 7 -2 6 -8 9 -13 5 -5 -3 10 -21 33 -41 68 -56 70 -70
13 -123 l-27 -25 -28 35 c-16 19 -35 49 -42 65 -6 17 -15 32 -18 35 -4 3 -36
47 -70 99 -35 51 -176 220 -313 375 -137 154 -305 346 -374 426 -69 80 -185
208 -257 286 -72 77 -172 186 -222 240 -50 55 -107 111 -127 124 -20 14 -40
34 -46 45 -8 18 -10 16 -10 -12 -1 -17 -4 -40 -8 -50 -6 -16 -5 -16 10 -4 16
12 22 9 60 -30 23 -24 78 -89 122 -144 44 -55 138 -167 210 -250 278 -320 305
-351 346 -395 23 -25 94 -106 158 -180 64 -74 164 -188 222 -252 59 -65 126
-144 150 -175 101 -134 249 -293 272 -293 3 0 23 17 45 37 22 21 78 70 124
110 46 40 185 177 308 305 281 293 1285 1298 1296 1298 5 0 19 -15 32 -34 13
-19 67 -74 120 -122 53 -49 142 -134 198 -189 151 -149 180 -175 193 -175 6 0
11 -4 11 -9 0 -5 11 -12 25 -15 14 -4 25 -13 25 -21 0 -7 9 -17 20 -20 11 -3
20 -13 20 -21 0 -8 10 -14 24 -14 26 0 80 -42 69 -53 -3 -4 3 -7 14 -7 11 0
38 -19 60 -42 73 -78 162 -149 210 -166 27 -9 53 -21 60 -27 7 -5 19 -16 28
-23 9 -7 15 -9 15 -2 0 16 14 12 38 -10 47 -44 18 -1 -44 65 -104 111 -255
284 -314 360 -120 154 -210 254 -512 566 -131 135 -251 262 -266 281 l-27 35
-210 -212 c-115 -117 -343 -349 -505 -516 -416 -427 -733 -746 -724 -730 5 10
3 13 -7 9 -24 -9 -39 15 -23 37 19 26 18 36 -3 28 -14 -4 -13 -1 5 16 12 12
27 19 32 16 6 -3 10 3 10 14 0 12 38 60 94 118 52 54 109 118 127 143 28 39
48 60 121 127 7 6 29 31 48 54 19 23 45 53 58 67 12 14 22 29 22 34 0 5 5 6
10 3 6 -3 10 -2 10 4 0 16 174 208 450 496 58 61 145 153 194 205 189 201 280
290 286 283 4 -4 21 -28 40 -53 18 -25 71 -81 117 -125 76 -72 85 -85 89 -122
5 -41 12 -52 75 -118 10 -12 19 -26 19 -32 0 -7 67 -80 150 -164 82 -83 161
-167 175 -185 14 -19 30 -34 34 -34 4 0 37 -28 73 -62 36 -35 90 -86 119 -113
30 -28 99 -97 154 -155 121 -126 165 -165 193 -175 12 -3 22 -11 22 -16 0 -13
26 -11 51 4 17 9 23 9 26 0 3 -7 9 -13 15 -13 5 0 19 -10 29 -22 17 -20 19
-20 10 -3 -5 11 -38 52 -73 90 -36 39 -104 117 -152 175 -49 58 -145 166 -215
240 -188 200 -479 524 -546 610 -33 41 -98 116 -145 166 -47 49 -122 131 -168
182 -46 51 -88 92 -93 92 -5 0 -31 -24 -57 -52 -26 -29 -121 -129 -212 -223
-91 -93 -215 -224 -275 -290 -61 -66 -180 -194 -265 -285 -354 -377 -429 -458
-485 -520 -121 -133 -328 -344 -322 -329 6 18 -30 59 -51 59 -6 0 -18 13 -26
28 -8 15 -27 34 -42 40 l-27 13 24 27 c13 15 91 97 174 182 83 85 207 218 275
295 69 77 166 182 216 235 50 52 129 138 176 190 47 52 103 113 124 135 21 23
81 88 133 145 120 133 390 427 501 545 47 49 100 107 118 129 18 21 35 37 37
35 2 -2 5 -15 7 -29 3 -25 76 -102 89 -94 4 2 10 -9 14 -25 3 -16 32 -58 63
-93 65 -72 181 -205 230 -264 61 -73 157 -178 262 -286 58 -60 107 -113 108
-118 2 -6 8 -10 14 -10 5 0 23 -13 38 -30 28 -30 58 -42 44 -17 -4 6 2 4 14
-6 11 -11 18 -25 15 -33 -5 -14 75 -94 129 -127 31 -18 265 -250 361 -355 l57
-63 0 65 c0 35 -3 66 -7 68 -5 2 -41 39 -82 83 -41 44 -118 125 -171 180 -137
144 -251 271 -272 306 -18 29 -18 29 8 41 20 9 24 17 19 36 l-6 24 24 -24 c13
-13 79 -84 147 -158 68 -74 163 -175 211 -225 48 -49 97 -101 108 -115 18 -23
20 -23 27 -7 3 10 4 38 1 63 -4 36 -14 55 -53 97 -47 50 -114 127 -296 338
-46 53 -157 179 -248 280 -201 224 -262 295 -323 376 -26 34 -53 68 -60 75 -6
7 -37 43 -67 78 -30 36 -68 79 -85 95 -16 17 -74 85 -127 152 -54 66 -105 126
-113 133 -14 12 -32 -3 -135 -108 -109 -113 -120 -121 -143 -113 -14 5 -27 7
-31 4 -3 -3 -11 6 -17 21 -7 14 -16 26 -21 26 -5 0 -4 8 1 18 8 15 219 250
306 340 l22 24 50 -64 c27 -35 81 -97 119 -138 39 -42 111 -129 162 -195 219
-284 382 -484 442 -540 18 -16 62 -66 98 -110 61 -73 141 -163 395 -443 49
-53 94 -110 101 -126 13 -27 13 -25 20 42 5 49 3 78 -5 94 -7 13 -49 61 -94
108 -84 88 -197 220 -300 350 -33 41 -76 93 -96 115 -216 236 -321 358 -402
468 -30 40 -92 113 -139 162 -83 87 -193 217 -291 344 -56 73 -49 76 -163 -50
-42 -46 -134 -141 -203 -211 -112 -113 -145 -140 -142 -115 1 4 -6 21 -14 38
-11 21 -21 29 -32 25 -14 -6 -14 -4 -2 13 60 84 145 186 250 301 68 75 150
166 182 203 32 37 62 67 66 67 4 0 13 -10 19 -22 5 -13 59 -77 118 -143 59
-66 138 -162 176 -212 38 -51 115 -148 171 -215 56 -68 113 -139 127 -158 33
-48 183 -222 305 -355 55 -60 116 -129 135 -151 19 -23 68 -79 108 -123 40
-45 70 -86 67 -91 -4 -6 -2 -10 3 -10 10 0 133 -145 144 -170 9 -20 11 47 8
285 -2 174 -4 201 -19 210 -9 5 -18 10 -21 10 -3 0 -18 9 -34 20 -56 39 -133
121 -187 200 -30 44 -56 82 -59 85 -3 3 -14 19 -24 35 -25 40 -117 161 -156
205 -16 19 -47 59 -68 88 -20 29 -65 88 -100 130 -35 42 -108 136 -162 207
-54 72 -109 141 -122 155 -13 14 -35 39 -48 56 -14 17 -57 69 -96 115 -38 46
-112 138 -163 204 -52 66 -97 124 -102 129 -5 6 -21 -1 -39 -19 -22 -21 -27
-31 -18 -37 9 -5 9 -8 1 -8 -6 0 -9 -9 -6 -20 3 -11 11 -20 18 -20 7 0 35 -30
63 -67 27 -38 76 -99 109 -138 185 -221 296 -359 345 -430 31 -44 87 -116 123
-160 37 -44 97 -118 133 -165 37 -47 99 -124 139 -171 40 -47 73 -91 73 -98 0
-6 5 -11 10 -11 6 0 10 -10 10 -22 0 -19 2 -20 10 -8 8 13 10 13 10 -2 0 -9 6
-19 13 -21 7 -3 5 -6 -5 -6 -14 -1 -16 -6 -9 -23 5 -13 14 -22 20 -20 6 1 11
-2 11 -6 0 -4 22 -21 49 -37 28 -16 47 -33 44 -38 -3 -4 4 -18 15 -30 10 -12
32 -45 47 -74 15 -29 32 -50 38 -46 6 3 7 1 3 -5 -12 -19 39 -92 64 -92 11 0
33 -77 25 -90 -5 -8 -16 -2 -36 20 -36 38 -38 52 -4 20 18 -17 25 -19 25 -9 0
19 -60 65 -79 61 -7 -2 -10 1 -6 7 9 15 -43 64 -61 57 -21 -8 -130 109 -309
334 -38 47 -85 105 -105 130 -20 25 -79 99 -132 165 -52 66 -116 143 -142 170
-25 28 -92 106 -149 174 -56 68 -141 168 -189 223 -48 54 -95 109 -104 123 -9
14 -20 22 -25 19 -5 -2 -89 -96 -188 -207 -194 -219 -234 -262 -347 -378 -43
-45 -74 -85 -74 -97 0 -11 11 -33 24 -49 35 -42 66 -101 55 -105 -5 -2 -11
-13 -12 -25 0 -11 -13 -28 -28 -37 -26 -15 -28 -15 -42 5 -20 27 -67 53 -67
36 -1 -13 -24 22 -25 38 -1 6 -6 9 -12 8 -12 -3 -125 133 -227 271 -32 44 -91
116 -130 160 -39 45 -82 97 -96 116 -13 19 -55 74 -93 122 -54 69 -67 93 -62
110 4 17 1 16 -11 -7 -13 -23 -147 -181 -173 -205 -3 -3 -24 -27 -46 -55 -22
-27 -76 -91 -120 -140 -133 -150 -237 -273 -300 -355 -33 -43 -105 -131 -160
-197 -55 -65 -126 -149 -157 -188 -32 -38 -82 -97 -113 -130 -30 -33 -67 -79
-82 -102 -18 -27 -35 -42 -48 -42 -11 0 -27 -1 -35 -2 -31 -4 -50 1 -50 16 0
7 -6 18 -13 22 -8 4 -16 16 -20 26 -6 15 -10 16 -29 6 -17 -9 -14 -1 17 42 21
30 64 83 94 118 31 35 72 82 91 106 19 23 89 107 155 186 66 79 150 182 187
229 36 47 106 130 155 186 48 55 116 134 150 175 34 41 128 151 208 244 80 94
176 207 213 252 58 71 68 80 77 64 5 -10 31 -42 57 -72 26 -30 89 -109 140
-175 126 -165 226 -290 268 -337 30 -34 35 -37 40 -21 7 25 115 173 210 287
184 223 494 615 566 718 53 77 52 76 64 44 6 -16 62 -96 125 -179 112 -149
135 -178 330 -416 55 -67 116 -143 135 -170 108 -150 292 -380 301 -375 5 4 9
1 9 -5 0 -6 6 -18 13 -25 29 -33 36 -43 31 -48 -3 -2 2 -7 10 -10 12 -5 14 6
12 71 -2 42 -7 86 -11 96 -8 19 -9 19 -15 0 -6 -15 -10 -11 -20 24 -13 42 -25
53 -33 30 -12 -35 -18 148 -13 398 16 714 18 1023 7 1041 -7 13 -11 -80 -12
-334 -1 -194 -3 -357 -4 -363 -1 -5 -3 -15 -4 -21 -2 -16 -93 94 -164 198 -34
50 -70 94 -81 97 -10 2 -15 9 -11 15 8 14 14 2591 6 3130 -5 336 -9 425 -19
429 -11 3 -13 -311 -11 -1754 1 -1590 -3 -1992 -21 -1899 -3 17 -10 30 -15 30
-6 1 -21 5 -34 9 -18 6 -21 10 -10 17 11 6 7 11 -16 20 -59 23 -68 48 -73 204
-5 147 3 190 33 179 8 -4 15 -4 15 -1 0 14 -104 173 -122 185 -18 13 -19 24
-16 176 2 115 -6 1637 -12 2209 0 4 -3 7 -8 7 -4 0 -7 -529 -6 -1175 0 -646
-3 -1172 -7 -1169 -4 2 -11 -12 -15 -32 -4 -21 -2 -39 4 -43 6 -4 8 -59 4
-159 -3 -84 -8 -148 -12 -142 -5 9 -9 9 -14 1 -4 -6 -15 -11 -26 -11 -16 0
-35 -25 -32 -42 5 -21 -17 -5 -26 20 -13 32 -20 476 -9 510 5 12 17 22 28 22
10 0 19 5 19 10 0 6 -5 10 -11 10 -6 0 -9 6 -6 13 4 11 -4 27 -58 122 -13 22
-38 83 -56 135 -33 94 -33 96 -34 285 0 105 -4 469 -10 810 -7 472 -12 590
-17 495 -5 -69 -6 -413 -3 -765 l6 -640 -34 76 c-18 41 -50 103 -70 136 -20
33 -37 67 -37 76 0 8 -6 17 -12 20 -10 3 -14 -37 -16 -177 -2 -99 -7 -182 -12
-184 -4 -2 -6 -39 -3 -82 4 -48 2 -85 -4 -92 -6 -7 -14 -28 -18 -45 -9 -45
-41 -45 -50 0 -4 17 -11 34 -16 37 -10 7 -30 822 -22 905 5 53 2 67 -26 121
-17 34 -31 64 -31 68 0 12 -62 106 -70 106 -5 0 -11 -19 -13 -42 l-4 -43 -1
48 c-1 26 2 47 7 47 20 0 -11 67 -73 159 -35 53 -68 105 -74 116 -9 15 -12
-133 -12 -565 0 -381 -4 -580 -10 -570 -8 13 -10 12 -10 -2 0 -10 -4 -18 -10
-18 -5 0 -10 7 -10 15 0 8 -4 15 -10 15 -5 0 -10 8 -10 17 0 15 -2 14 -14 -3
-20 -27 -29 -12 -34 59 -6 91 -22 95 -22 6 0 -42 -3 -131 -7 -197 -5 -108 -8
-120 -20 -102 -11 16 -18 17 -39 10 -32 -13 -42 -6 -61 39 -13 29 -17 115 -24
456 -9 470 -17 663 -30 685 -7 13 -8 13 -9 0 -6 -202 -10 -262 -18 -277 -6
-10 -12 -199 -16 -423 -3 -223 -9 -433 -14 -468 -7 -58 -6 -67 19 -110 15 -26
45 -72 68 -102 22 -30 41 -59 41 -65 0 -5 -5 -3 -10 5 -5 8 -10 10 -10 4 0
-16 25 -35 34 -26 4 4 6 0 4 -8 -2 -8 3 -14 10 -15 14 0 52 -44 52 -60 0 -5
-5 -3 -10 5 -9 13 -11 13 -20 0 -8 -13 -10 -13 -10 1 0 9 -7 22 -15 29 -13 10
-15 9 -15 -9 0 -11 -4 -21 -10 -21 -5 0 -10 -15 -10 -34 0 -19 -5 -47 -11 -63
-10 -26 -12 -27 -23 -9 -6 11 -29 40 -51 65 -22 26 -60 75 -85 111 -24 36 -58
83 -76 105 -17 22 -57 78 -89 125 -31 47 -60 87 -64 90 -3 3 -25 26 -48 52
-43 47 -43 48 -42 120 1 40 5 87 9 103 7 28 8 26 9 -15 l2 -45 19 24 20 23 0
-53 c0 -29 3 -49 7 -45 10 10 13 116 3 116 -5 0 -11 15 -15 33 -4 17 -13 47
-22 66 -11 24 -12 36 -4 44 8 8 11 5 11 -12 0 -13 10 -34 23 -45 12 -12 28
-31 35 -42 7 -10 10 -14 8 -8 -3 6 -2 116 2 245 l8 234 58 108 c32 59 65 114
73 123 14 14 14 19 -3 57 -11 23 -30 54 -43 69 -23 29 -84 135 -149 261 -25
49 -38 65 -46 57 -7 -7 -13 -109 -16 -298 l-5 -287 -28 -3 c-54 -7 -63 19 -70
189 -12 268 -9 655 5 641 7 -7 16 -12 21 -12 11 0 -68 145 -100 183 l-23 28 7
-47 c4 -34 3 -45 -5 -40 -7 4 -12 16 -12 27 0 10 -4 19 -10 19 -5 0 -10 8 -10
18 0 14 2 15 10 2 15 -23 13 27 -3 70 -17 46 -29 69 -96 173 l-56 89 -5 -234
c-3 -131 -7 -185 -8 -123 -1 61 -7 117 -12 125 -6 10 -10 11 -10 3 0 -7 -4
-13 -10 -13 -5 0 -10 9 -10 20 0 11 -6 20 -12 20 -9 0 -12 17 -10 60 4 57 13
75 26 48 3 -7 4 1 0 17 -16 86 -16 92 4 111 20 19 20 19 -2 64 -12 25 -37 80
-56 123 -27 62 -36 74 -41 59 -4 -11 -3 -147 3 -303 12 -335 7 -2044 -6 -2056
-5 -4 -11 -2 -13 5 -3 6 -14 12 -24 12 -11 0 -32 14 -46 30 -13 17 -28 28 -33
25 -16 -10 -20 120 -21 695 -1 406 -4 581 -11 552 -8 -35 -13 -42 -28 -37 -16
5 -19 -1 -24 -47 -3 -29 -7 -235 -9 -458 -2 -381 -3 -406 -21 -427 -21 -23
-39 -21 -72 9 -26 23 -33 71 -36 233 -2 152 -13 184 -22 65 -4 -52 -9 -104
-12 -115 -5 -20 -54 -51 -54 -34 0 5 -11 9 -25 9 -18 0 -25 5 -25 19 0 11 -5
21 -12 23 -10 4 -22 164 -27 367 -1 19 -4 31 -8 28 -3 -4 -6 -22 -5 -41 1 -23
-7 -43 -23 -62 -27 -32 -31 -44 -13 -44 6 0 5 -7 -5 -18 -9 -10 -20 -33 -23
-51 -5 -21 -11 -30 -20 -27 -8 3 -14 1 -14 -4 0 -5 -8 -9 -17 -8 -10 0 -32 -6
-50 -13 -28 -11 -37 -11 -67 4 -20 9 -43 14 -52 10 -21 -8 -16 1 47 82 51 67
198 309 223 368 9 21 38 75 65 120 88 148 126 229 126 273 0 47 -49 153 -121
259 -69 102 -73 117 -75 310 l-3 170 -6 -120 c-4 -66 -8 -136 -9 -155 -1 -34
-2 -34 -35 32 -19 37 -61 109 -94 160 -32 51 -84 138 -114 193 -57 102 -110
187 -195 309 -26 38 -68 101 -93 140 -26 39 -102 146 -170 237 -69 91 -167
225 -219 297 -52 73 -98 132 -102 132 -5 0 -8 -79 -7 -175z m21 -534 l-6 -163
-38 -47 c-66 -79 -166 -221 -261 -366 -49 -77 -107 -162 -127 -190 l-36 -49
-7 39 c-4 22 -10 76 -14 120 l-6 80 72 135 c72 136 105 188 196 315 28 39 88
123 134 188 46 65 87 114 91 110 4 -4 5 -82 2 -172z m52 77 c16 -24 22 -38 14
-31 -15 12 -53 73 -46 73 2 0 17 -19 32 -42z m-1348 -785 c-3 -10 -5 -4 -5 12
0 17 2 24 5 18 2 -7 2 -21 0 -30z m110 -85 c0 -18 -2 -25 -4 -15 -3 9 -9 17
-15 17 -6 0 -6 6 2 15 17 20 17 20 17 -17z m-1 -74 c-4 -9 -9 -15 -11 -12 -3
3 -3 13 1 22 4 9 9 15 11 12 3 -3 3 -13 -1 -22z m4 -124 c0 -5 -4 -10 -10 -10
-5 0 -10 5 -10 10 0 6 5 10 10 10 6 0 10 -4 10 -10z m1228 -170 c19 -25 69
-94 113 -155 44 -60 116 -161 162 -224 45 -63 89 -123 97 -135 150 -214 266
-374 308 -426 29 -36 87 -114 128 -175 41 -60 107 -155 145 -210 105 -150 120
-175 113 -187 -4 -6 -3 -9 2 -5 5 3 14 -6 21 -19 12 -27 10 -29 -18 -14 -11 6
-24 8 -31 4 -6 -4 1 -12 18 -20 25 -11 26 -12 7 -13 -16 -1 -22 -8 -25 -28 -3
-24 -8 -28 -35 -28 -17 0 -29 -3 -26 -7 2 -5 0 -8 -4 -8 -5 0 -40 43 -79 97
-38 53 -90 124 -115 158 -44 60 -121 169 -259 369 -97 141 -245 339 -330 442
-41 51 -111 144 -155 208 -44 63 -82 115 -85 115 -7 -1 -230 -281 -310 -390
-59 -80 -105 -144 -273 -379 -29 -41 -127 -178 -218 -305 -90 -126 -214 -305
-274 -397 -96 -146 -129 -188 -124 -160 5 23 -16 72 -32 77 -11 4 -19 10 -19
14 0 5 -13 8 -30 7 -36 -1 -37 -7 -5 -42 14 -15 25 -30 25 -34 0 -4 12 -20 26
-36 14 -16 32 -42 41 -59 8 -16 23 -39 33 -50 9 -11 30 -45 46 -75 16 -30 35
-61 41 -68 7 -7 13 -20 13 -28 0 -8 5 -14 11 -14 6 0 8 -9 4 -21 -5 -15 -4
-19 4 -15 7 5 11 -7 11 -38 0 -24 3 -52 7 -62 6 -16 7 -16 15 2 7 16 8 16 7
-6 -2 -40 1 -46 12 -30 9 12 10 12 5 -3 -3 -10 -6 -24 -6 -31 0 -7 -7 -13 -15
-13 -8 0 -15 9 -15 20 0 13 -5 17 -15 13 -9 -3 -15 0 -15 9 0 18 -40 20 -40 3
0 -7 -6 -4 -12 7 -6 11 -17 24 -25 28 -7 4 -13 13 -13 18 0 6 -11 25 -25 43
-14 18 -25 36 -25 40 0 4 -9 17 -21 29 -12 12 -33 38 -47 57 -15 19 -47 60
-72 90 -25 30 -59 75 -74 99 -16 25 -56 74 -90 110 -34 36 -88 100 -121 141
-33 41 -63 77 -66 80 -3 3 -8 13 -12 23 -9 24 -23 14 -30 -20 -3 -16 3 -41 14
-62 14 -26 19 -30 19 -16 0 17 2 17 10 5 5 -8 7 -23 4 -32 -6 -20 31 -77 101
-159 26 -30 81 -106 123 -169 41 -63 100 -142 130 -175 29 -33 62 -77 73 -97
19 -38 26 -65 10 -39 -8 12 -12 12 -25 -2 -9 -8 -16 -23 -16 -32 0 -13 -6 -16
-22 -11 -13 3 -32 6 -42 6 -11 0 -16 3 -13 7 7 6 -29 50 -116 143 -23 25 -71
78 -107 119 -36 41 -75 84 -87 96 -13 12 -23 26 -23 31 0 5 -9 15 -20 22 -33
20 -25 -7 23 -76 23 -33 93 -134 155 -224 249 -359 343 -507 336 -533 -4 -15
-3 -16 4 -6 8 11 12 10 21 -7 9 -18 9 -21 -2 -16 -9 3 -17 -3 -20 -16 -7 -28
1 -50 19 -50 10 0 14 -12 14 -40 0 -22 -4 -40 -9 -40 -13 0 -41 -29 -41 -41 0
-6 5 -7 12 -3 7 5 8 3 3 -6 -6 -9 -18 -1 -44 30 -55 65 -240 320 -327 450 -42
63 -94 135 -114 160 -20 25 -42 55 -49 68 -6 12 -16 22 -20 22 -10 0 -85 -97
-210 -269 -46 -64 -120 -163 -165 -221 -45 -58 -122 -163 -171 -235 -49 -71
-116 -164 -149 -205 -52 -66 -63 -75 -90 -73 -16 0 -36 9 -43 19 -7 10 -13 14
-13 8 0 -5 -5 -1 -11 9 -11 18 -32 12 -63 -18 -18 -19 -10 -35 84 -160 33 -44
86 -118 119 -165 32 -47 66 -92 75 -99 20 -17 53 -76 37 -67 -6 4 -12 1 -12
-6 -1 -7 -2 -17 -4 -23 -1 -5 -3 -23 -3 -38 -2 -24 -5 -27 -23 -22 -13 5 -25
2 -29 -6 -13 -20 -42 9 -35 35 3 12 2 15 -1 9 -10 -23 -22 -14 -61 45 -40 62
-89 122 -198 247 -39 44 -98 116 -132 160 -34 44 -75 95 -91 113 l-29 33 -48
-53 c-27 -29 -93 -111 -147 -183 -376 -498 -469 -611 -490 -599 -6 4 -13 1
-17 -5 -11 -17 -91 -17 -102 0 -15 23 -11 32 39 94 27 33 83 112 125 175 41
63 111 160 154 215 83 106 143 188 233 315 48 68 219 298 242 324 4 5 10 1 14
-10 4 -10 28 -41 53 -69 25 -27 72 -89 104 -136 72 -107 114 -150 126 -129 5
8 23 35 40 60 17 25 65 97 107 160 106 158 282 417 359 525 69 97 81 124 37
79 -15 -16 -38 -36 -50 -44 -13 -8 -20 -21 -17 -30 3 -9 -13 -36 -40 -65 -25
-28 -45 -53 -45 -57 0 -4 -10 -17 -22 -29 -13 -12 -16 -18 -8 -14 8 5 12 4 7
0 -4 -5 -26 -8 -47 -6 -30 2 -40 -1 -40 -13 0 -21 -31 -36 -52 -25 -14 8 -27
-5 -75 -78 -32 -49 -85 -123 -116 -166 -52 -71 -60 -77 -71 -61 -7 10 -18 14
-25 10 -6 -4 -22 -1 -34 7 -26 17 -76 19 -94 5 -7 -6 -13 -7 -13 -2 0 16 119
207 186 299 72 100 202 291 355 525 55 85 124 190 153 232 28 43 69 106 91
140 21 35 114 176 206 314 91 138 168 257 171 264 3 11 66 -67 138 -175 45
-68 214 -287 232 -303 12 -10 27 8 94 110 43 68 113 168 155 223 41 55 144
199 229 320 159 228 241 343 361 505 38 52 100 138 137 190 36 52 120 171 186
263 67 93 132 186 146 207 l25 38 15 -27 c8 -15 30 -47 48 -71z m-2381 58 c-3
-7 -5 -2 -5 12 0 14 2 19 5 13 2 -7 2 -19 0 -25z m843 -4 c0 -8 -4 -14 -10
-14 -5 0 -10 9 -10 21 0 11 5 17 10 14 6 -3 10 -13 10 -21z m1960 -204 c0 -5
-5 -10 -11 -10 -5 0 -7 5 -4 10 3 6 8 10 11 10 2 0 4 -4 4 -10z m-2803 -42
c-3 -7 -5 -2 -5 12 0 14 2 19 5 13 2 -7 2 -19 0 -25z m1317 -59 c3 -17 6 -88
6 -157 l0 -126 -22 24 c-21 22 -23 34 -22 130 1 109 8 160 23 160 5 0 11 -14
15 -31z m-1258 -26 c-11 -11 -19 6 -11 24 8 17 8 17 12 0 3 -10 2 -21 -1 -24z
m1448 18 c14 -15 16 -29 10 -70 -6 -48 -24 -82 -24 -47 0 9 -4 16 -10 16 -6 0
-10 27 -10 60 0 64 6 72 34 41z m-1397 -173 c-3 -7 -5 -2 -5 12 0 14 2 19 5
13 2 -7 2 -19 0 -25z m2324 -187 c47 -64 135 -183 196 -266 61 -82 119 -164
129 -180 11 -17 52 -74 92 -125 96 -124 252 -336 288 -391 24 -36 28 -53 26
-92 -2 -26 -7 -45 -13 -42 -5 4 -9 -11 -9 -34 0 -23 -4 -41 -10 -41 -12 0 0
-33 16 -42 7 -5 10 -17 6 -30 l-5 -21 -19 22 c-10 13 -15 28 -11 34 3 5 2 7
-4 4 -5 -4 -48 46 -94 111 -46 64 -109 149 -140 187 -76 95 -313 408 -486 641
l-59 81 -52 -61 c-77 -92 -365 -470 -432 -566 -13 -19 -56 -73 -96 -120 -39
-47 -114 -144 -167 -217 -134 -184 -171 -232 -181 -232 -4 -1 -6 6 -3 14 4 8
0 27 -8 42 -8 15 -18 43 -21 62 -7 33 -8 33 -21 15 -14 -18 -15 -18 -9 6 l7
25 -15 -25 c-12 -19 -15 -21 -16 -8 0 17 114 184 368 536 64 89 169 235 232
323 118 166 288 394 363 487 36 45 43 50 52 36 6 -9 49 -69 96 -133z m-1979
-13 c-8 -8 -9 -4 -5 13 4 13 8 18 11 10 2 -7 -1 -18 -6 -23z m18 -38 c0 -5 -3
-10 -7 -12 -5 -1 -5 -122 -1 -267 4 -155 3 -271 -2 -280 -8 -14 -9 -14 -10 2
0 10 -7 28 -15 40 -19 29 -25 455 -6 466 6 4 13 21 14 38 1 20 6 29 15 26 6
-3 12 -9 12 -13z m1946 -457 c193 -241 261 -333 247 -333 -12 0 -35 16 -34 24
1 3 -1 6 -4 6 -3 0 -9 0 -14 0 -14 0 -23 -52 -12 -63 17 -17 13 -27 -9 -27
-11 0 -20 -4 -20 -10 0 -5 -7 -10 -15 -10 -18 0 -19 -12 -3 -28 7 -7 9 -12 6
-12 -4 0 -56 65 -116 144 l-109 145 -25 -27 c-13 -15 -42 -49 -64 -77 -21 -27
-68 -81 -102 -120 -35 -38 -81 -95 -102 -125 -39 -56 -296 -387 -351 -450 -17
-21 -26 -26 -19 -13 7 15 7 30 0 48 -12 31 -16 138 -7 174 5 20 24 48 47 71 9
9 65 85 99 135 19 28 62 84 96 125 33 41 101 129 150 195 117 160 267 348 271
342 1 -1 41 -52 90 -114z m2932 -433 l-3 -135 -12 80 c-16 101 -16 119 -6 350
l8 190 7 -175 c5 -96 7 -236 6 -310z m-928 70 l0 -200 -34 -37 c-51 -58 -88
-121 -73 -126 8 -4 7 -6 -3 -6 -15 -1 -45 -37 -45 -56 0 -5 -4 -11 -8 -12 -13
-4 -57 -60 -57 -73 0 -16 20 -2 31 24 9 21 10 21 5 -1 -6 -30 9 -29 42 4 17
17 22 28 14 31 -7 2 -10 8 -6 13 3 5 0 9 -5 9 -6 0 -11 4 -11 8 0 17 30 8 36
-10 3 -10 12 -18 21 -18 12 0 13 -3 4 -14 -15 -17 -4 -46 18 -45 10 0 11 2 4
6 -7 2 -13 12 -13 20 0 12 3 13 14 4 11 -10 17 -7 30 10 8 12 13 26 10 31 -3
4 1 8 9 8 10 0 16 -15 19 -49 5 -55 26 -84 198 -286 56 -66 142 -173 191 -237
77 -100 167 -217 197 -253 23 -28 23 -35 0 -32 -14 1 -22 -3 -21 -10 2 -7 -8
-28 -21 -48 -19 -27 -23 -42 -17 -63 4 -15 6 -32 4 -39 -2 -6 1 -14 6 -18 6
-3 11 -11 11 -18 0 -6 -10 -1 -23 13 -70 77 -260 304 -298 356 -24 34 -80 106
-124 161 -44 55 -85 108 -91 118 -9 16 -21 5 -100 -95 -49 -63 -113 -141 -141
-174 -59 -68 -287 -355 -406 -509 -94 -123 -100 -129 -84 -88 11 29 9 37 -18
88 -17 30 -29 59 -28 64 2 4 -5 5 -14 2 -14 -6 -13 -1 5 23 12 16 54 74 94
129 39 55 97 134 128 175 31 41 87 120 125 175 38 55 107 145 152 199 59 71
81 105 77 118 -3 10 0 18 6 18 6 0 8 -4 5 -10 -3 -5 -2 -10 4 -10 13 0 23 17
14 23 -13 8 -16 117 -4 117 6 0 11 14 11 31 0 28 -3 31 -25 27 -14 -3 -28 -1
-31 3 -3 5 -9 9 -14 9 -9 0 -90 -113 -90 -125 0 -8 -9 -19 -131 -175 -50 -63
-112 -148 -138 -188 -53 -84 -102 -151 -198 -273 -37 -47 -76 -96 -85 -110
-17 -24 -17 -24 -5 10 11 32 11 34 -23 63 -64 54 -90 70 -90 56 0 -7 -9 -19
-20 -26 -16 -10 -14 -2 11 38 28 46 175 252 318 445 32 44 111 159 175 255 65
96 182 270 261 385 80 116 166 245 191 288 26 42 48 77 50 77 2 0 4 -90 4
-200z m-905 -108 c-3 -3 -11 0 -18 7 -9 10 -8 11 6 5 10 -3 15 -9 12 -12z
m-916 -36 c-2 -2 -13 8 -23 22 l-19 27 24 -22 c12 -12 21 -24 18 -27z m942 7
c13 -16 12 -17 -3 -4 -10 7 -18 15 -18 17 0 8 8 3 21 -13z m-353 -38 c-3 -3
-9 2 -12 12 -6 14 -5 15 5 6 7 -7 10 -15 7 -18z m-513 -55 l20 -25 -22 19
c-13 11 -23 24 -23 29 0 6 1 8 3 6 1 -2 11 -15 22 -29z m-3368 -112 c-2 -24
-4 -7 -4 37 0 44 2 63 4 43 2 -21 2 -57 0 -80z m3413 62 c6 -11 9 -20 8 -20
-2 0 -11 9 -21 20 -9 11 -13 20 -7 20 5 0 14 -9 20 -20z m31 -47 c13 -16 12
-17 -3 -4 -10 7 -18 15 -18 17 0 8 8 3 21 -13z m3029 -65 c0 -72 -7 -85 -16
-32 -2 16 -7 35 -9 42 -7 18 5 62 16 62 5 0 9 -32 9 -72z m-2996 26 c3 -8 2
-12 -4 -9 -6 3 -10 10 -10 16 0 14 7 11 14 -7z m-1435 -408 c-2 -2 -13 8 -23
22 l-19 27 24 -22 c12 -12 21 -24 18 -27z m-2209 -31 c0 -5 -5 -3 -10 5 -5 8
-10 20 -10 25 0 6 5 3 10 -5 5 -8 10 -19 10 -25z m2197 -7 c-3 -8 -6 -5 -6 6
-1 11 2 17 5 13 3 -3 4 -12 1 -19z m-2275 -94 c10 -1 15 2 12 7 -3 5 6 9 20 9
19 0 26 -5 26 -20 0 -11 4 -20 9 -20 5 0 7 9 4 20 -4 13 0 20 9 20 24 0 25 -7
16 -67 -5 -32 -9 -76 -9 -98 l0 -40 -16 30 c-9 17 -27 43 -40 59 -13 16 -22
35 -19 43 3 8 2 12 -3 8 -11 -6 -53 50 -44 59 4 3 9 3 12 -1 3 -5 14 -9 23 -9z
m-32 -239 c0 -105 -8 -139 -38 -159 -15 -10 -52 -50 -82 -89 -30 -38 -95 -115
-144 -171 -108 -121 -197 -232 -244 -303 -19 -29 -39 -50 -44 -47 -6 4 -6 9 2
14 8 5 9 16 1 41 l-11 34 3 -32 c4 -38 -8 -44 -17 -10 -11 42 -6 98 13 135 11
21 54 78 96 127 43 50 117 143 166 207 184 245 279 354 291 336 4 -7 8 -44 8
-83z m5410 44 c0 -25 6 -33 35 -45 20 -8 34 -18 31 -22 -2 -4 3 -16 11 -27 13
-16 15 -17 10 -2 -11 29 0 20 60 -54 89 -110 124 -159 114 -159 -6 0 -13 4
-16 10 -3 5 -15 15 -26 20 -17 10 -19 7 -19 -30 0 -33 3 -40 20 -40 11 0 20
-4 20 -10 0 -5 -7 -10 -15 -10 -8 0 -15 -9 -15 -19 0 -11 -5 -21 -11 -23 -6
-2 1 -15 16 -30 17 -17 21 -28 13 -30 -8 -3 -5 -15 12 -39 13 -19 29 -37 34
-41 6 -4 8 -9 5 -12 -3 -3 -29 23 -57 59 -52 64 -63 83 -40 69 7 -4 8 -3 4 5
-4 6 -11 9 -15 6 -8 -4 -109 110 -162 183 l-24 33 -25 -30 c-14 -16 -93 -112
-177 -213 -175 -212 -298 -346 -308 -336 -4 3 -10 43 -14 88 -8 91 0 112 64
180 18 19 77 94 131 165 119 159 197 253 235 283 16 13 43 44 60 68 33 48 49
49 49 3z m-3788 -84 c35 -42 81 -102 102 -133 22 -31 77 -109 123 -174 82
-114 98 -146 68 -134 -11 4 -15 -1 -15 -18 0 -13 -8 -33 -19 -44 -19 -23 -18
-70 3 -84 8 -6 7 -8 -1 -8 -7 0 -23 15 -36 33 -119 163 -221 297 -233 308 -23
19 -56 88 -49 102 4 7 -27 -23 -69 -66 -41 -44 -148 -176 -238 -295 -89 -120
-178 -236 -198 -258 -19 -23 -43 -53 -52 -65 -17 -24 -17 -24 -5 9 6 17 15 32
19 32 4 0 8 5 8 11 0 6 -6 9 -13 6 -22 -8 -48 75 -36 115 11 41 11 41 -3 32
-11 -7 22 42 89 132 186 250 309 410 354 465 30 35 70 84 88 108 32 40 35 42
42 23 5 -12 36 -55 71 -97z m4453 -185 l20 -25 -24 20 c-13 11 -32 34 -43 50
l-21 30 24 -25 c13 -14 33 -37 44 -50z m-6081 -158 c9 -90 6 -135 -8 -123 -9
8 -25 -3 -57 -37 -79 -83 -193 -214 -271 -312 -41 -52 -92 -113 -112 -135 -33
-36 -34 -37 -21 -10 14 29 14 31 -14 56 l-30 26 77 111 c42 61 142 191 222
288 80 96 154 187 165 200 18 22 21 23 31 9 7 -9 15 -42 18 -73z m3440 -96
c59 -67 155 -182 212 -256 58 -74 124 -157 147 -184 53 -62 118 -144 212 -271
41 -55 81 -108 90 -117 8 -10 15 -22 15 -27 0 -5 7 -12 16 -15 8 -3 12 -11 8
-17 -4 -7 -3 -9 4 -5 12 7 54 -42 47 -54 -3 -5 -1 -11 4 -15 6 -3 13 -27 17
-53 3 -26 13 -55 22 -64 8 -10 12 -18 8 -18 -3 0 0 -13 8 -28 8 -16 12 -39 9
-51 -3 -13 -1 -26 4 -30 6 -3 14 -17 18 -31 4 -15 4 -21 -2 -15 -75 82 -226
264 -451 544 -59 73 -168 206 -242 296 -74 89 -160 193 -190 230 -30 38 -64
79 -75 92 l-20 25 -160 -183 c-87 -100 -179 -207 -204 -238 -25 -31 -122 -148
-216 -260 -256 -309 -317 -382 -349 -425 l-29 -39 -14 27 c-14 26 -9 96 6 96
4 0 13 17 20 38 29 82 86 184 143 254 33 40 69 85 81 100 12 14 29 36 37 48
26 39 200 252 264 325 34 39 73 86 86 105 34 49 170 218 213 263 20 20 53 58
74 83 l38 47 20 -28 c11 -16 69 -82 129 -149z m1969 62 c2 -18 3 -61 0 -95 -2
-38 1 -72 8 -85 11 -20 10 -21 -3 -11 -19 16 -21 15 -175 -157 -66 -74 -133
-146 -148 -160 l-26 -25 30 65 c17 36 31 74 31 84 0 30 87 172 164 266 37 47
75 100 82 118 8 17 18 32 23 32 5 0 11 -15 14 -32z m-3849 0 c3 -13 6 -58 6
-101 l0 -78 -48 -47 c-26 -26 -87 -101 -136 -167 -95 -127 -186 -238 -192
-232 -6 6 17 78 24 73 4 -2 5 16 3 40 -1 24 1 44 7 44 5 0 12 22 16 49 6 49
24 69 44 49 7 -7 10 1 8 25 -1 19 2 33 6 31 4 -3 13 8 20 23 16 35 80 137 91
141 4 2 7 9 7 16 0 7 12 23 26 37 14 13 42 45 61 72 39 53 48 57 57 25z m406
-88 c0 -5 -2 -10 -4 -10 -3 0 -8 5 -11 10 -3 6 -1 10 4 10 6 0 11 -4 11 -10z
m3770 -50 c0 -5 -2 -10 -4 -10 -3 0 -8 5 -11 10 -3 6 -1 10 4 10 6 0 11 -4 11
-10z m21 -37 c13 -16 12 -17 -3 -4 -17 13 -22 21 -14 21 2 0 10 -8 17 -17z
m-281 -68 c13 -14 19 -25 13 -25 -6 0 -18 11 -27 25 -9 14 -15 25 -13 25 2 0
14 -11 27 -25z m-3860 5 c0 -5 -5 -10 -11 -10 -5 0 -7 5 -4 10 3 6 8 10 11 10
2 0 4 -4 4 -10z m288 -15 c-3 -3 -9 2 -12 12 -6 14 -5 15 5 6 7 -7 10 -15 7
-18z m3903 8 c13 -16 12 -17 -3 -4 -10 7 -18 15 -18 17 0 8 8 3 21 -13z
m-2434 -105 c23 -29 70 -88 105 -131 35 -42 78 -96 97 -120 18 -23 113 -140
210 -260 195 -242 213 -266 204 -280 -3 -6 -1 -7 5 -3 7 4 12 1 12 -9 0 -9 4
-13 10 -10 5 3 7 0 5 -8 -3 -7 4 -22 15 -32 16 -14 17 -20 8 -26 -10 -7 -10
-13 1 -31 23 -37 30 -82 14 -96 -11 -11 -9 -18 9 -45 13 -18 25 -34 29 -37 3
-3 18 -23 34 -45 44 -61 16 -31 -82 86 -48 58 -115 137 -148 176 -33 38 -100
121 -150 184 -49 62 -119 147 -155 189 -36 41 -97 116 -135 165 -39 50 -91
113 -117 142 l-47 52 -93 -107 c-51 -59 -127 -145 -169 -192 -42 -47 -110
-129 -152 -182 -42 -53 -101 -123 -130 -155 -29 -32 -88 -102 -130 -155 -43
-54 -81 -98 -84 -98 -3 0 -3 9 0 20 3 13 1 18 -6 13 -17 -11 0 122 22 165 11
22 31 52 44 68 13 16 32 44 41 61 9 18 29 42 45 54 31 23 84 91 113 143 9 17
20 29 24 27 5 -2 13 5 19 15 14 26 21 35 52 74 16 19 40 51 55 70 14 19 54 67
88 105 34 39 73 87 87 108 13 21 32 41 41 44 22 8 70 61 78 85 3 10 9 18 13
18 5 0 14 14 22 31 l13 32 20 -26 c12 -15 40 -50 63 -79z m-2397 60 c0 -16 -3
-19 -11 -11 -6 6 -8 16 -5 22 11 17 16 13 16 -11z m-1041 -15 c-8 -10 -41 -45
-74 -78 -33 -34 -46 -45 -28 -25 17 19 48 54 69 78 37 42 59 58 33 25z m504
-158 c33 -44 116 -149 184 -233 68 -84 141 -179 162 -210 22 -31 61 -83 86
-114 26 -32 42 -58 37 -58 -5 0 -20 15 -33 34 -30 45 -59 63 -60 39 -1 -10 -1
-21 0 -25 0 -5 -11 -8 -25 -8 -17 0 -23 -4 -18 -12 32 -52 -132 119 -224 234
-34 42 -96 112 -137 155 l-74 78 -33 -35 c-135 -144 -179 -194 -249 -283 -44
-56 -95 -120 -112 -142 -18 -22 -66 -75 -107 -118 -70 -74 -75 -77 -81 -55 -3
13 -11 33 -17 44 -7 14 -7 29 2 55 13 38 289 412 416 564 42 50 98 121 125
159 l49 69 24 -29 c13 -16 51 -65 85 -109z m2920 -250 c23 -27 73 -83 111
-125 37 -41 106 -124 151 -185 46 -60 102 -132 124 -160 23 -27 54 -70 70 -95
16 -25 39 -56 51 -70 58 -68 70 -87 70 -105 0 -17 2 -17 10 -5 10 15 4 -136
-6 -152 -3 -4 3 -20 12 -35 27 -43 4 -17 -86 96 -45 57 -112 139 -148 181 -37
42 -105 125 -152 185 -47 60 -114 143 -150 185 -36 41 -75 88 -87 104 -20 25
-25 27 -40 15 -25 -21 -330 -364 -393 -443 -30 -37 -89 -109 -131 -159 -42
-51 -81 -101 -88 -112 l-13 -20 8 20 c4 11 9 58 11 105 5 87 15 116 53 160 12
14 34 45 48 70 35 61 146 204 178 229 14 11 37 38 52 60 15 21 41 54 57 73 17
18 45 53 62 77 18 24 60 77 95 117 57 68 64 73 76 57 7 -10 31 -40 55 -68z
m-2946 -77 c43 -50 110 -128 148 -173 57 -66 194 -239 240 -301 7 -10 4 -25
-9 -49 -15 -28 -24 -34 -39 -29 -16 5 -19 3 -13 -12 3 -11 -8 -3 -25 16 -77
86 -153 175 -258 302 l-114 137 -43 -37 c-23 -20 -105 -107 -182 -192 -193
-215 -207 -226 -248 -195 -16 11 -23 11 -48 -2 -30 -15 -30 -15 -16 5 32 45
261 322 362 438 59 68 117 137 129 153 13 17 26 31 31 31 4 0 42 -41 85 -92z
m5037 -73 c22 -27 72 -86 110 -130 38 -44 95 -114 126 -156 31 -42 73 -96 93
-120 20 -24 79 -96 132 -159 94 -113 95 -115 74 -132 -11 -9 -19 -23 -18 -30
3 -25 -1 -38 -12 -38 -5 0 -7 5 -4 10 3 6 0 11 -7 11 -7 1 -20 2 -28 3 -8 0
-18 -5 -21 -13 -7 -17 -122 115 -369 423 -25 31 -73 81 -107 111 l-62 55 -68
-77 c-37 -42 -113 -125 -168 -183 -55 -58 -129 -142 -164 -185 -123 -153 -186
-227 -265 -313 -43 -48 -90 -103 -105 -122 -91 -122 -190 -229 -192 -208 -1 7
-5 2 -9 -12 -5 -16 -8 -19 -9 -8 -1 10 -12 20 -25 24 -27 6 -40 47 -25 76 9
16 7 17 -17 8 l-27 -11 29 38 c16 21 87 107 159 192 71 85 152 181 179 215
102 126 243 294 312 371 39 44 113 132 165 196 52 64 124 151 162 194 37 43
67 82 67 88 0 5 12 -8 26 -29 15 -21 45 -61 68 -89z m-3640 -298 c83 -102 86
-116 28 -117 -19 0 -21 -3 -12 -19 7 -14 6 -21 -3 -24 -23 -8 -89 36 -125 84
-20 27 -40 49 -45 49 -5 0 -7 7 -3 15 3 8 -6 27 -19 43 -19 22 -26 46 -32 108
l-8 79 -6 -95 c-5 -77 -3 -97 9 -110 9 -8 66 -78 128 -155 62 -77 128 -158
147 -180 19 -22 78 -105 132 -185 54 -80 117 -167 140 -195 61 -73 70 -93 70
-163 0 -48 -3 -61 -13 -57 -8 3 -20 5 -27 5 -13 0 -118 124 -240 285 -78 103
-335 405 -344 405 -21 0 -245 -244 -304 -330 -56 -83 -151 -194 -268 -315 -64
-66 -144 -154 -179 -195 -91 -107 -140 -155 -140 -136 0 9 6 16 13 16 6 0 -1
8 -18 19 -16 10 -43 32 -59 49 l-29 31 57 76 c60 80 80 115 56 100 -10 -6 -12
0 -6 34 3 23 10 50 15 59 5 9 16 35 26 57 17 40 55 97 108 160 15 18 27 35 27
39 0 11 73 121 134 201 235 311 342 441 475 580 l86 91 74 -106 c41 -58 110
-149 155 -203z m-1401 48 c41 -49 119 -141 171 -203 53 -61 91 -111 85 -110
-17 4 -40 -42 -36 -69 3 -18 1 -21 -13 -13 -10 5 -32 26 -50 47 -18 21 -69 78
-114 127 -44 49 -88 99 -96 112 l-16 23 -54 -53 c-30 -29 -107 -110 -169 -179
-75 -83 -118 -124 -125 -117 -5 5 -11 38 -12 74 l-3 64 57 65 c192 221 287
327 293 325 3 -2 40 -43 82 -93z m4107 44 c0 -5 -4 -9 -10 -9 -5 0 -10 7 -10
16 0 8 5 12 10 9 6 -3 10 -10 10 -16z m-1211 -27 c5 -10 11 -39 12 -64 2 -41
5 -47 30 -52 18 -3 38 -21 58 -51 17 -25 31 -48 31 -51 0 -11 29 -34 43 -34
19 0 57 -60 57 -88 0 -12 6 -25 13 -29 8 -4 22 -21 32 -36 14 -21 20 -25 27
-15 5 8 6 2 2 -16 -6 -23 -4 -27 7 -21 8 5 11 5 7 0 -4 -4 2 -21 13 -37 37
-52 13 -41 -32 15 -100 123 -292 347 -299 347 -10 0 -98 -94 -289 -307 -89
-101 -165 -183 -168 -183 -4 0 1 8 9 18 9 9 18 46 21 84 6 60 10 70 45 105 22
21 42 49 46 61 4 12 11 22 15 22 4 0 23 21 41 48 19 26 55 70 82 97 26 28 56
62 65 75 30 44 105 130 114 130 5 0 13 -8 18 -18z m2242 -242 c52 -64 121
-149 154 -190 32 -41 93 -115 135 -165 42 -49 101 -122 132 -161 56 -70 56
-72 44 -106 -14 -43 -34 -68 -52 -68 -18 0 -18 -5 2 -35 9 -14 12 -25 7 -25
-5 0 -48 48 -95 108 -47 59 -127 154 -179 212 -52 58 -109 126 -128 150 -19
25 -58 70 -86 100 -28 30 -64 74 -80 98 -15 23 -31 42 -34 42 -16 0 -308 -319
-479 -523 -24 -29 -81 -92 -126 -142 -45 -49 -123 -137 -173 -195 -50 -58
-104 -118 -121 -134 l-31 -29 12 32 c8 23 9 34 1 39 -7 4 -13 16 -15 27 -3 11
-10 20 -17 20 -7 0 -17 7 -22 15 -6 9 -13 11 -17 5 -5 -5 -17 -17 -28 -25 -24
-18 57 88 122 161 27 30 71 81 98 114 53 63 79 93 166 190 30 33 89 103 132
155 99 121 231 267 376 417 l115 118 46 -45 c26 -25 89 -97 141 -160z m1284
-147 c111 -130 117 -140 100 -147 -8 -3 -15 -12 -15 -20 0 -8 -6 -17 -12 -19
-7 -3 -3 -6 10 -6 13 -1 22 -7 22 -16 0 -13 4 -13 26 2 27 17 27 17 56 -17 17
-19 42 -51 56 -70 43 -56 134 -164 145 -171 5 -4 6 -12 2 -19 -5 -8 -4 -11 3
-6 6 3 16 -3 23 -16 6 -12 20 -31 30 -42 11 -11 19 -28 19 -38 0 -10 5 -18 10
-18 6 0 10 -7 10 -15 0 -8 5 -15 10 -15 6 0 10 -7 10 -15 0 -8 5 -15 10 -15
15 0 12 -57 -2 -63 -10 -4 -9 -8 2 -16 8 -5 12 -12 9 -16 -10 -9 -59 46 -59
66 0 11 -5 19 -11 19 -5 0 -8 4 -5 9 3 4 -3 16 -14 26 -11 10 -20 14 -20 10 0
-5 -18 9 -40 30 -22 21 -40 47 -40 56 0 9 -7 22 -15 29 -14 11 -14 15 0 36 9
14 11 24 5 24 -6 0 -15 11 -20 25 -11 30 -35 34 -27 5 4 -15 0 -20 -14 -20
-10 0 -19 5 -19 10 0 6 5 10 10 10 6 0 10 7 10 15 0 8 -6 15 -13 15 -7 0 -24
11 -39 25 -22 20 -27 21 -32 9 -3 -8 -11 -12 -17 -9 -6 4 -8 13 -5 21 3 8 -1
14 -10 14 -11 0 -14 6 -10 16 3 8 2 12 -4 9 -5 -3 -15 6 -22 20 -8 18 -14 22
-20 13 -5 -9 -8 -6 -8 10 0 12 -4 21 -9 20 -5 -2 -22 13 -37 33 -67 82 -150
169 -162 169 -8 0 -38 -20 -66 -45 -29 -25 -55 -45 -57 -45 -6 0 -11 35 -12
86 -1 37 5 48 68 119 l70 77 25 -33 c14 -18 57 -70 95 -116z m-3496 103 c38
-57 112 -148 191 -236 47 -52 130 -147 185 -210 55 -63 132 -149 171 -191 39
-42 104 -117 144 -165 41 -49 81 -96 89 -105 33 -35 137 -153 148 -169 11 -16
10 -17 -6 -13 -11 3 -22 16 -25 29 -4 15 -11 21 -21 18 -9 -4 -15 0 -15 9 0
17 -50 81 -57 73 -3 -2 -14 5 -26 17 l-22 22 -3 -24 c-2 -14 3 -30 11 -35 20
-16 54 -85 62 -130 5 -26 10 -34 16 -24 6 9 9 7 9 -9 0 -14 6 -23 15 -23 8 0
15 -8 15 -19 0 -10 13 -34 30 -52 17 -20 30 -47 31 -64 1 -16 3 -42 3 -57 1
-15 5 -30 10 -35 5 -5 6 -2 1 7 -8 13 -7 13 8 1 22 -17 22 -27 0 -28 -10 0
-31 15 -46 33 -22 26 -25 34 -13 34 9 0 16 4 16 9 0 5 -8 7 -18 5 -18 -5 -98
79 -383 405 -79 91 -178 201 -220 245 -42 45 -111 121 -153 169 -71 82 -157
170 -161 165 -1 -2 -32 -39 -70 -83 -38 -44 -106 -129 -152 -190 -77 -103
-115 -151 -319 -401 -44 -54 -105 -130 -134 -169 -30 -38 -90 -111 -134 -161
-145 -164 -242 -277 -336 -394 -52 -63 -139 -166 -194 -229 -56 -63 -136 -156
-179 -208 -43 -51 -81 -93 -83 -93 -2 0 2 13 11 29 15 29 14 30 -34 78 -65 65
-88 78 -109 61 -21 -16 -21 -16 116 149 56 67 125 152 153 190 29 37 80 100
113 138 34 39 81 95 106 125 100 124 188 230 260 310 42 47 101 117 130 155
48 62 159 202 310 391 26 33 79 101 116 150 38 49 127 163 199 254 72 91 150
191 174 223 23 32 45 56 48 53 4 -3 13 -17 22 -30z m-942 -87 c4 -19 -14 -45
-24 -35 -4 5 -2 11 5 13 6 3 12 9 12 14 0 6 -4 7 -10 4 -5 -3 -10 1 -10 10 0
20 24 15 27 -6z m53 -71 c18 -27 18 -29 2 -11 -11 12 -22 19 -26 16 -3 -4 -6
1 -6 10 0 24 6 21 30 -15z m2925 2 c8 -16 15 -51 15 -77 l1 -48 14 30 c7 17
14 25 14 19 1 -15 47 -64 54 -58 3 3 8 -4 12 -15 3 -12 11 -21 16 -21 15 0
189 -211 189 -229 0 -3 -9 5 -20 19 l-20 25 9 -25 c8 -24 7 -25 -35 -26 -24
-1 -44 3 -44 8 0 5 -5 6 -11 2 -6 -3 -7 -9 -3 -13 20 -14 34 -40 26 -45 -8 -5
-122 124 -122 138 0 2 6 6 13 9 6 2 4 3 -5 2 -11 -2 -36 17 -62 46 -24 27 -51
49 -59 49 -15 0 -234 -227 -377 -389 -105 -120 -259 -291 -321 -359 -41 -43
-56 -54 -49 -37 6 15 10 45 10 68 0 76 67 186 194 321 15 17 40 47 55 66 14
19 34 41 43 48 10 7 18 17 18 23 0 5 7 17 15 27 55 64 219 247 267 298 32 33
77 86 101 117 23 31 43 56 44 57 1 0 9 -13 18 -30z m-3770 -101 c5 -26 17 -48
40 -68 18 -16 31 -32 28 -35 -4 -3 3 -6 14 -6 23 0 44 -28 62 -82 7 -21 16
-38 19 -38 11 0 32 -74 23 -80 -16 -10 -8 -40 11 -40 12 0 18 7 18 23 1 21 1
21 12 3 8 -15 8 -21 0 -24 -7 -2 -12 -27 -12 -63 l0 -59 -31 0 c-21 0 -28 -4
-23 -12 9 -17 -38 26 -92 82 -23 25 -40 47 -37 50 3 3 8 0 10 -7 3 -9 11 -6
26 7 15 15 23 17 28 8 15 -23 22 2 12 37 -8 25 -8 36 1 40 8 3 8 7 -1 11 -7 3
-13 10 -13 16 0 6 -11 25 -24 42 -13 17 -35 48 -49 69 -28 42 -29 42 -47 -27
-11 -39 -30 -67 -95 -135 -44 -47 -114 -126 -155 -176 -72 -87 -264 -303 -364
-408 -30 -33 -42 -41 -31 -23 9 15 15 37 12 47 -3 10 -2 17 2 15 10 -6 34 61
26 73 -3 5 -1 12 5 16 5 3 18 25 29 48 26 53 43 80 57 89 7 4 15 20 18 34 6
23 35 71 61 100 6 6 19 23 30 38 11 16 34 44 52 65 18 20 37 47 44 61 6 14 16
35 22 48 8 16 13 19 19 10 5 -9 8 -7 8 7 0 11 37 63 83 116 45 52 100 118 121
147 37 48 41 50 57 36 10 -9 20 -33 24 -55z m5371 -26 c-7 -7 -26 7 -26 19 0
6 6 6 15 -2 9 -7 13 -15 11 -17z m-1592 -297 l9 -68 -85 -87 c-47 -47 -113
-120 -148 -161 -62 -74 -194 -219 -299 -329 -29 -31 -50 -47 -46 -36 4 11 9
44 12 74 6 53 12 64 89 171 22 29 102 124 157 184 15 17 27 33 27 37 0 4 41
49 90 100 50 51 90 101 90 111 0 11 5 15 15 12 11 -5 15 1 15 18 0 30 19 50
45 46 17 -3 21 -14 29 -72z m2506 44 c0 -5 -2 -10 -4 -10 -3 0 -8 5 -11 10 -3
6 -1 10 4 10 6 0 11 -4 11 -10z m-3830 -30 c0 -5 -5 -10 -11 -10 -5 0 -7 5 -4
10 3 6 8 10 11 10 2 0 4 -4 4 -10z m1985 0 c3 -5 1 -10 -4 -10 -6 0 -11 5 -11
10 0 6 2 10 4 10 3 0 8 -4 11 -10z m-4465 -239 c0 -94 2 -107 23 -130 l22 -26
-28 24 -27 25 -28 -21 c-15 -11 -62 -60 -106 -109 -43 -49 -114 -126 -157
-171 l-79 -83 6 43 c4 23 10 43 13 45 4 1 5 20 3 42 -3 25 0 40 7 40 6 0 11 7
11 16 0 20 37 89 70 131 14 17 38 47 53 66 15 20 40 53 54 74 22 32 53 74 86
118 4 5 17 23 29 39 l21 28 13 -23 c9 -15 13 -62 14 -128z m4076 112 c15 -20
23 -33 16 -29 -13 8 -56 66 -49 66 3 0 17 -17 33 -37z m64 -72 c0 -5 5 -13 12
-17 7 -5 8 -2 3 7 -4 8 1 5 12 -6 11 -11 16 -23 11 -26 -5 -3 -2 -12 7 -19 9
-7 21 -23 26 -34 6 -12 -4 -5 -21 14 -59 66 -89 107 -84 113 8 7 34 -18 34
-32z m-327 -139 l7 -89 -98 -99 c-54 -54 -154 -157 -222 -229 -79 -83 -112
-113 -91 -83 22 33 31 58 31 88 0 22 7 54 15 71 9 16 13 34 10 38 -3 5 1 15 8
23 7 7 23 29 37 48 13 19 55 69 94 110 83 88 167 185 179 206 16 28 24 5 30
-84z m-5008 68 c3 -5 1 -10 -4 -10 -6 0 -11 5 -11 10 0 6 2 10 4 10 3 0 8 -4
11 -10z m150 -154 l20 -31 -37 30 c-20 17 -37 36 -37 43 -1 7 -8 15 -16 18 -8
4 -15 11 -15 16 0 15 63 -41 85 -76z m-311 61 c3 3 6 1 6 -5 0 -18 -25 -14
-41 5 -13 15 -12 15 7 5 12 -6 24 -8 28 -5z m1451 -95 c-4 -4 -15 4 -25 18
-28 36 -24 43 6 13 14 -14 22 -28 19 -31z m5805 33 c13 -14 21 -25 18 -25 -2
0 -15 11 -28 25 -13 14 -21 25 -18 25 2 0 15 -11 28 -25z m-7182 -27 c7 21 42
14 42 -8 0 -17 7 -20 40 -20 33 0 40 -3 40 -20 0 -13 7 -20 20 -20 13 0 20 -7
20 -20 0 -11 5 -20 10 -20 6 0 10 -10 10 -22 0 -12 7 -30 17 -40 9 -10 12 -18
7 -18 -5 0 -10 -9 -10 -19 0 -11 5 -19 10 -18 5 1 15 -9 23 -23 7 -14 13 -21
13 -15 0 5 18 -10 40 -34 22 -24 37 -48 33 -54 -4 -6 -1 -7 6 -3 8 5 14 1 17
-11 7 -24 60 -57 77 -47 6 4 9 4 6 0 -4 -4 -3 -23 1 -42 4 -18 4 -34 -1 -34
-12 0 -29 36 -21 45 4 5 2 5 -4 2 -6 -4 -36 19 -65 51 -121 129 -184 203 -181
213 1 6 -1 8 -6 5 -10 -6 -203 197 -202 213 0 3 12 -7 27 -24 17 -19 28 -25
31 -17z m-1798 -18 c0 -5 -5 -10 -11 -10 -5 0 -7 5 -4 10 3 6 8 10 11 10 2 0
4 -4 4 -10z m6970 -14 c0 -3 -4 -8 -10 -11 -5 -3 -10 -1 -10 4 0 6 5 11 10 11
6 0 10 -2 10 -4z m-3905 -128 l0 -105 -51 -46 c-28 -25 -84 -84 -124 -132
l-74 -86 -26 33 c-19 25 -49 87 -50 105 0 5 143 168 223 254 45 48 87 87 92
85 6 -2 10 -47 10 -108z m5090 -29 c-12 -43 -32 -66 -206 -236 -107 -104 -267
-258 -356 -342 -90 -84 -163 -156 -163 -160 0 -3 -32 -39 -70 -79 -45 -48 -74
-71 -82 -66 -7 4 -10 3 -5 -1 9 -11 -53 -76 -65 -69 -5 3 -7 1 -6 -5 2 -5 -12
-26 -31 -46 -27 -29 -36 -33 -47 -24 -11 9 -21 9 -41 0 -41 -19 -39 -5 7 46
51 57 604 626 814 838 82 82 167 174 189 203 l41 54 16 -33 c15 -28 16 -39 5
-80z m-5933 -4 c12 -22 -12 1 -67 65 -28 33 -27 32 13 -5 24 -22 48 -49 54
-60z m4667 -48 l-1 -102 -139 -134 c-126 -122 -138 -131 -134 -103 2 18 0 34
-5 37 -5 3 -7 12 -3 20 3 9 -1 15 -8 15 -10 0 -10 3 -1 12 7 7 12 23 12 38 1
32 39 83 149 195 48 50 93 100 100 113 22 41 31 12 30 -91z m-1018 66 c13 -16
12 -17 -3 -4 -10 7 -18 15 -18 17 0 8 8 3 21 -13z m-3472 -218 c0 -12 -65 62
-80 90 -6 11 10 -2 35 -30 25 -27 45 -54 45 -60z m761 72 c0 -5 -8 -6 -17 -3
-10 4 -1 -10 20 -29 20 -20 37 -41 37 -47 0 -14 -44 26 -72 64 l-19 28 25 -2
c14 -1 26 -6 26 -11z m-3186 -12 c-4 -8 -8 -15 -10 -15 -2 0 -4 7 -4 15 0 8 4
15 10 15 5 0 7 -7 4 -15z m6061 -35 c4 -8 -8 -2 -24 14 -17 17 -31 31 -31 33
0 9 50 -34 55 -47z m-209 -42 c-4 6 -3 12 3 12 5 0 11 -10 13 -22 2 -14 9 -22
18 -20 8 2 12 0 8 -4 -7 -6 57 -95 74 -102 9 -4 60 -72 54 -72 -6 0 -15 9
-111 115 -78 85 -107 125 -70 95 11 -9 16 -10 11 -2z m-2762 -29 c3 -17 6 -52
6 -78 0 -60 15 -112 40 -141 32 -37 22 -38 -12 -1 l-31 34 -79 -86 c-44 -48
-84 -87 -88 -87 -5 0 -5 12 -1 28 4 15 4 45 -1 66 -13 58 -2 104 39 158 21 26
41 48 45 48 5 0 14 12 20 28 13 31 38 62 48 62 4 0 10 -14 14 -31z m-798 -46
c19 -25 17 -30 -8 -29 -13 0 -23 7 -22 14 3 38 10 41 30 15z m25 -65 c18 -20
23 -28 16 -28 -2 0 -14 11 -27 25 -13 14 -20 25 -15 25 4 0 16 -10 26 -22z
m304 -56 c-6 -6 -53 38 -67 63 -6 11 8 2 31 -19 22 -22 39 -42 36 -44z m145
-158 c-1 -4 4 -11 12 -15 8 -6 9 -9 1 -9 -12 0 -93 92 -93 106 0 5 18 -10 41
-33 22 -23 40 -45 39 -49z m-299 49 c13 -16 12 -17 -3 -4 -17 13 -22 21 -14
21 2 0 10 -8 17 -17z m449 -484 c0 -6 -4 -7 -10 -4 -5 3 -10 11 -10 16 0 6 5
7 10 4 6 -3 10 -11 10 -16z m-242 -60 c28 -28 56 -48 62 -44 6 3 9 3 8 -2 -3
-13 13 -53 22 -53 4 0 10 -7 14 -15 3 -8 4 -15 3 -15 -1 0 -43 41 -92 90 -49
50 -85 90 -78 90 6 0 33 -23 61 -51z m4342 -29 c-6 -11 -20 -25 -33 -31 -18
-10 -17 -6 7 20 34 36 41 39 26 11z m-300 -140 c0 -5 -8 -10 -17 -10 -15 0
-16 2 -3 10 19 12 20 12 20 0z m-3860 -31 c0 -6 -4 -7 -10 -4 -5 3 -10 11 -10
16 0 6 5 7 10 4 6 -3 10 -11 10 -16z m94 -105 c9 -24 7 -28 -9 -14 -17 14 -20
30 -6 30 5 0 12 -7 15 -16z m86 -107 c-1 -14 -60 53 -60 67 0 6 14 -4 30 -22
17 -18 30 -39 30 -45z m3396 -204 c-7 -7 -26 7 -26 19 0 6 6 6 15 -2 9 -7 13
-15 11 -17z"/>
<path d="M3105 5829 c-4 -6 -5 -12 -2 -15 2 -3 7 2 10 11 7 17 1 20 -8 4z"/>
<path d="M2685 5434 c-20 -30 -11 -46 10 -18 13 18 20 44 11 44 -2 0 -11 -12
-21 -26z"/>
<path d="M5142 6984 c-1 -17 -4 -47 -7 -65 -5 -31 -5 -32 5 -9 6 13 9 42 7 65
-3 32 -4 34 -5 9z"/>
<path d="M7232 5880 c0 -14 2 -19 5 -12 2 6 2 18 0 25 -3 6 -5 1 -5 -13z"/>
<path d="M7233 5435 c0 -38 2 -53 4 -32 2 20 2 52 0 70 -2 17 -4 1 -4 -38z"/>
<path d="M7391 5184 c0 -11 3 -14 6 -6 3 7 2 16 -1 19 -3 4 -6 -2 -5 -13z"/>
<path d="M5845 3890 c3 -5 8 -10 11 -10 2 0 4 5 4 10 0 6 -5 10 -11 10 -5 0
-7 -4 -4 -10z"/>
<path d="M7202 4190 c0 -19 2 -27 5 -17 2 9 2 25 0 35 -3 9 -5 1 -5 -18z"/>
<path d="M2201 2637 c2 -1 13 -9 24 -17 19 -14 19 -14 6 3 -7 9 -18 17 -24 17
-6 0 -8 -1 -6 -3z"/>
<path d="M4123 9920 c0 -25 2 -35 4 -22 2 12 2 32 0 45 -2 12 -4 2 -4 -23z"/>
<path d="M4119 9340 c-2 -245 -2 -503 1 -575 3 -71 8 120 10 425 3 305 2 564
-1 575 -4 11 -9 -180 -10 -425z"/>
<path d="M6338 9363 c-28 -32 -30 -58 -7 -86 24 -31 56 -35 75 -9 17 21 18 84
2 100 -17 17 -53 15 -70 -5z"/>
<path d="M9140 9048 c0 -116 4 -168 10 -158 13 20 13 330 0 330 -6 0 -10 -64
-10 -172z"/>
<path d="M6386 9075 c-9 -91 -1 -623 10 -682 4 -18 9 -33 13 -33 8 0 2 490 -7
670 l-8 135 -8 -90z"/>
<path d="M2046 9079 c-14 -11 -26 -28 -26 -37 1 -37 55 -77 87 -65 54 19 69
67 31 103 -28 26 -58 26 -92 -1z m86 -6 c20 -18 24 -48 7 -58 -15 -10 -61 4
-54 15 3 6 1 10 -4 10 -12 0 -15 33 -4 43 11 12 36 8 55 -10z"/>
<path d="M3482 9025 c0 -16 2 -22 5 -12 2 9 2 23 0 30 -3 6 -5 -1 -5 -18z"/>
<path d="M7333 8905 c0 -38 2 -53 4 -32 2 20 2 52 0 70 -2 17 -4 1 -4 -38z"/>
<path d="M1056 8744 c-25 -24 -20 -60 11 -82 27 -20 28 -20 55 0 30 21 38 64
16 86 -17 17 -64 15 -82 -4z m67 -7 c30 -32 12 -67 -35 -67 -25 0 -28 3 -26
28 2 15 12 32 23 39 25 15 24 15 38 0z"/>
<path d="M3233 8635 c0 -27 2 -38 4 -22 2 15 2 37 0 50 -2 12 -4 0 -4 -28z"/>
<path d="M8529 8647 c-25 -19 -41 -57 -35 -82 11 -42 83 -55 124 -23 23 19 9
90 -22 110 -17 11 -49 9 -67 -5z"/>
<path d="M8568 8397 c4 -141 9 -154 11 -30 0 61 -2 114 -6 116 -5 3 -7 -36 -5
-86z"/>
<path d="M7328 8353 c-2 -60 0 -124 3 -143 4 -19 7 29 8 108 0 78 -1 142 -3
142 -3 0 -6 -48 -8 -107z"/>
<path d="M1732 8344 c-28 -19 -30 -74 -4 -97 28 -25 87 -22 106 5 22 32 20 55
-9 83 -28 29 -61 32 -93 9z"/>
<path d="M3232 8309 c-8 -32 -12 -136 -11 -282 1 -172 4 -218 10 -177 5 30 8
111 7 180 -1 69 1 171 5 228 4 56 6 102 4 102 -2 0 -9 -23 -15 -51z"/>
<path d="M7072 8330 c0 -19 2 -27 5 -17 2 9 2 25 0 35 -3 9 -5 1 -5 -18z"/>
<path d="M6399 8340 c-4 -111 -10 -200 -14 -220 -5 -23 -4 -23 12 5 21 37 31
201 14 218 -8 8 -11 7 -12 -3z"/>
<path d="M9418 8232 c13 -9 13 -32 0 -42 -3 -3 -3 -21 2 -40 9 -39 9 -39 16
10 2 19 5 44 6 55 2 13 -4 20 -17 23 -14 2 -16 1 -7 -6z"/>
<path d="M8572 8190 c0 -19 2 -27 5 -17 2 9 2 25 0 35 -3 9 -5 1 -5 -18z"/>
<path d="M7632 7905 c0 -159 3 -229 9 -209 5 19 5 117 0 240 l-8 209 -1 -240z"/>
<path d="M8573 8045 c0 -27 2 -38 4 -22 2 15 2 37 0 50 -2 12 -4 0 -4 -28z"/>
<path d="M8271 7668 c0 -230 3 -418 7 -418 7 0 5 769 -2 815 -2 11 -4 -168 -5
-397z"/>
<path d="M9427 8068 c-8 -23 -6 -2111 3 -2153 4 -22 8 456 9 1063 0 606 -1
1102 -3 1102 -2 0 -6 -6 -9 -12z"/>
<path d="M2587 8053 c-2 -5 2 -19 9 -33 l14 -25 0 33 c0 29 -13 43 -23 25z"/>
<path d="M7840 7928 c0 -37 2 -40 14 -28 9 9 12 26 9 43 -8 42 -23 32 -23 -15z"/>
<path d="M6550 7940 c0 -11 5 -20 10 -20 6 0 10 9 10 20 0 11 -4 20 -10 20 -5
0 -10 -9 -10 -20z"/>
<path d="M2612 7910 c0 -19 2 -27 5 -17 2 9 2 25 0 35 -3 9 -5 1 -5 -18z"/>
<path d="M7331 7825 c1 -16 5 -43 9 -60 7 -27 8 -26 9 15 0 25 -4 52 -9 60 -7
11 -9 8 -9 -15z"/>
<path d="M1082 7700 c0 -14 2 -19 5 -12 2 6 2 18 0 25 -3 6 -5 1 -5 -13z"/>
<path d="M1083 7610 c0 -30 2 -43 4 -27 2 15 2 39 0 55 -2 15 -4 2 -4 -28z"/>
<path d="M7854 7010 c0 -69 1 -97 3 -62 2 34 2 90 0 125 -2 34 -3 6 -3 -63z"/>
<path d="M7486 7070 c-4 -19 -9 -161 -12 -315 l-4 -280 36 -40 35 -40 -5 34
c-4 19 -11 147 -17 285 -6 138 -14 283 -18 321 -6 64 -8 67 -15 35z"/>
<path d="M1832 6830 l2 -155 4 125 c2 91 6 121 13 110 8 -11 9 -6 5 20 -4 19
-11 39 -16 44 -7 7 -9 -43 -8 -144z"/>
<path d="M1374 6745 c0 -126 2 -177 3 -112 2 65 2 168 0 230 -1 62 -3 9 -3
-118z"/>
<path d="M7852 6820 c0 -14 2 -19 5 -12 2 6 2 18 0 25 -3 6 -5 1 -5 -13z"/>
<path d="M7853 6755 c0 -22 2 -30 4 -17 2 12 2 30 0 40 -3 9 -5 -1 -4 -23z"/>
<path d="M7340 6615 c0 -8 4 -15 10 -15 5 0 7 7 4 15 -4 8 -8 15 -10 15 -2 0
-4 -7 -4 -15z"/>
<path d="M1081 6434 c1 -93 5 -221 9 -284 4 -64 5 9 2 165 -3 154 -6 282 -8
284 -2 2 -3 -72 -3 -165z"/>
<path d="M7352 6569 c-8 -13 -10 -33 -5 -57 l7 -37 7 55 c4 30 6 56 5 57 -1 1
-7 -7 -14 -18z"/>
<path d="M7380 6495 c0 -8 5 -15 10 -15 6 0 10 7 10 15 0 8 -4 15 -10 15 -5 0
-10 -7 -10 -15z"/>
<path d="M1640 6310 c-2 -25 -4 -28 -7 -12 -6 31 -23 28 -23 -5 0 -56 -20
-460 -25 -503 l-5 -45 45 70 45 70 -1 160 c-1 148 -24 354 -29 265z"/>
<path d="M5120 6203 c0 -5 13 -17 28 -27 l27 -19 -24 26 c-26 28 -31 32 -31
20z"/>
<path d="M1093 5955 c0 -44 2 -61 4 -37 2 23 2 59 0 80 -2 20 -4 1 -4 -43z"/>
<path d="M9423 5790 c0 -30 2 -43 4 -27 2 15 2 39 0 55 -2 15 -4 2 -4 -28z"/>
<path d="M1450 5769 c0 -5 5 -7 10 -4 6 3 10 8 10 11 0 2 -4 4 -10 4 -5 0 -10
-5 -10 -11z"/>
<path d="M1457 5706 c4 -36 3 -47 -5 -42 -9 5 -12 -8 -12 -44 0 -46 2 -50 15
-36 17 17 21 132 5 156 -7 10 -8 -1 -3 -34z"/>
<path d="M5030 5540 c-18 -23 -30 -43 -28 -45 2 -3 19 15 36 40 39 56 34 59
-8 5z"/>
<path d="M1257 5494 c-4 -22 -9 -87 -12 -145 -5 -83 -4 -100 6 -84 6 11 20 29
29 40 31 35 62 98 51 104 -5 3 -13 19 -17 35 -5 20 -9 24 -15 14 -6 -9 -9 -5
-9 15 0 15 -4 27 -9 27 -5 0 -11 8 -13 18 -2 9 -7 -1 -11 -24z"/>
<path d="M4969 5463 c-13 -16 -12 -17 4 -4 9 7 17 15 17 17 0 8 -8 3 -21 -13z"/>
<path d="M4939 5423 c-13 -16 -12 -17 4 -4 9 7 17 15 17 17 0 8 -8 3 -21 -13z"/>
<path d="M4547 5353 c-62 -79 -100 -133 -93 -133 2 0 27 30 54 68 28 37 62 82
77 100 15 17 24 32 21 32 -3 0 -29 -30 -59 -67z"/>
<path d="M4895 5382 c-5 -4 -17 -16 -25 -27 -11 -15 -7 -14 13 4 24 22 32 31
25 31 -2 0 -7 -4 -13 -8z"/>
<path d="M4765 5229 c-11 -17 1 -21 15 -4 8 9 8 15 2 15 -6 0 -14 -5 -17 -11z"/>
<path d="M4731 5177 c-13 -21 -12 -21 5 -5 10 10 16 20 13 22 -3 3 -11 -5 -18
-17z"/>
<path d="M8385 4749 c-41 -50 -72 -95 -69 -100 3 -5 1 -8 -4 -7 -8 3 -99 -90
-154 -157 -13 -16 -78 -95 -144 -175 -66 -80 -137 -169 -159 -197 -39 -53 -46
-60 -44 -45 6 39 -24 65 -63 54 -16 -4 -14 -9 11 -46 16 -22 43 -54 60 -71 18
-16 46 -52 63 -79 27 -41 33 -46 39 -30 3 11 5 22 2 27 -2 4 -5 25 -5 47 0 35
-2 38 -19 29 -28 -14 -24 -6 24 53 23 29 72 91 107 138 35 47 94 119 130 161
61 70 157 189 301 372 34 43 58 81 54 85 -4 4 -10 1 -12 -6 -3 -6 -9 -10 -14
-6 -5 3 -8 0 -7 -7 2 -7 -7 -18 -19 -24 -13 -5 -23 -15 -23 -22 0 -7 -7 -13
-15 -13 -9 0 -12 6 -9 15 4 8 10 15 15 15 5 0 9 6 9 14 0 8 5 16 12 18 11 4
23 48 13 48 -2 0 -38 -41 -80 -91z m-81 -171 c9 -34 8 -36 -14 -43 -11 -4 -18
-10 -15 -14 6 -11 -33 -51 -48 -50 -9 0 -9 2 1 6 6 2 12 11 12 18 0 7 6 16 13
19 10 5 10 7 0 12 -7 3 -13 14 -13 23 0 14 6 17 25 13 15 -2 25 0 25 7 0 6 -5
11 -11 11 -5 0 -7 5 -4 10 10 17 22 11 29 -12z"/>
<path d="M3402 4500 c0 -14 2 -19 5 -12 2 6 2 18 0 25 -3 6 -5 1 -5 -13z"/>
<path d="M9566 4094 c-9 -23 -6 -186 4 -209 5 -13 9 25 9 103 1 67 -1 122 -3
122 -2 0 -7 -7 -10 -16z"/>
<path d="M1053 3875 c0 -27 2 -38 4 -22 2 15 2 37 0 50 -2 12 -4 0 -4 -28z"/>
<path d="M761 3714 c0 -11 3 -14 6 -6 3 7 2 16 -1 19 -3 4 -6 -2 -5 -13z"/>
<path d="M710 3655 c-18 -19 -31 -37 -28 -40 3 -3 20 12 38 35 39 49 35 52
-10 5z"/>
<path d="M585 3524 c-41 -43 -75 -81 -75 -86 0 -12 114 97 141 135 35 48 10
29 -66 -49z"/>
<path d="M406 3347 c-32 -51 -78 -121 -102 -155 -24 -35 -44 -73 -44 -85 0
-16 4 -13 19 15 10 20 43 70 75 111 31 42 56 82 56 90 0 8 7 21 16 28 9 7 20
24 25 37 6 15 14 21 21 16 7 -4 10 -4 6 1 -4 4 -3 14 3 22 9 10 8 13 -2 13 -8
-1 -40 -42 -73 -93z"/>
<path d="M8471 3284 c0 -11 3 -14 6 -6 3 7 2 16 -1 19 -3 4 -6 -2 -5 -13z"/>
<path d="M8473 3215 c0 -22 2 -30 4 -17 2 12 2 30 0 40 -3 9 -5 -1 -4 -23z"/>
<path d="M506 3164 c-9 -8 -21 -25 -27 -37 -7 -15 -1 -11 20 11 17 18 31 35
31 38 0 8 -9 4 -24 -12z"/>
<path d="M337 2989 c-51 -54 -87 -100 -87 -112 0 -23 -2 -25 40 28 17 22 55
65 84 95 57 60 72 80 59 80 -5 0 -48 -41 -96 -91z"/>
<path d="M911 2863 c-58 -59 -164 -171 -234 -248 -70 -77 -188 -205 -262 -285
-74 -80 -142 -157 -150 -171 -9 -16 -14 -50 -13 -84 l2 -58 19 24 c10 13 121
134 246 269 125 135 279 301 342 370 64 69 127 131 141 139 24 14 27 12 108
-72 45 -48 88 -87 94 -87 7 0 30 19 51 41 22 23 35 39 29 36 -6 -4 -60 43
-120 104 -60 61 -117 115 -128 121 -15 8 -34 -6 -125 -99z"/>
<path d="M943 2626 c-80 -84 -191 -205 -349 -381 -49 -55 -128 -140 -175 -190
-47 -49 -100 -107 -118 -127 -31 -36 -32 -38 -16 -68 15 -30 13 -50 -6 -50 -5
0 -9 16 -9 35 0 19 -4 35 -10 35 -5 0 -8 -27 -7 -60 1 -33 4 -60 7 -59 3 0 34
35 70 77 121 141 675 712 692 712 14 0 29 -41 23 -63 -4 -14 17 2 62 47 l68
69 -32 11 c-18 6 -52 30 -77 53 l-44 41 -79 -82z"/>
<path d="M993 2426 c-4 -7 -34 -42 -66 -77 -102 -112 -240 -262 -303 -329 -33
-36 -79 -90 -103 -120 l-43 -55 64 66 c131 138 447 488 457 508 13 23 7 29 -6
7z"/>
<path d="M5079 2292 c-24 -27 -89 -100 -144 -162 -55 -63 -123 -139 -151 -169
-28 -31 -96 -110 -152 -176 -112 -132 -182 -210 -347 -392 -60 -66 -191 -210
-290 -318 -99 -109 -205 -223 -235 -254 -30 -31 -73 -78 -95 -106 -22 -27 -44
-53 -49 -56 -5 -4 -5 -20 -2 -35 8 -29 8 -29 98 66 49 52 165 178 256 279 220
242 206 227 346 371 67 69 142 150 166 180 25 30 77 89 116 130 40 41 94 102
120 135 110 137 361 371 387 362 7 -2 15 -35 20 -73 7 -63 11 -72 51 -114 24
-25 94 -106 156 -180 62 -74 147 -173 190 -220 42 -47 124 -139 180 -205 57
-66 131 -151 166 -190 61 -68 90 -104 252 -305 76 -94 130 -156 118 -133 -9
16 10 25 63 34 54 8 66 2 139 -71 l55 -55 -50 60 c-27 33 -64 80 -83 105 -19
25 -73 90 -120 145 -47 55 -137 163 -200 240 -109 132 -136 164 -286 325 -160
172 -335 370 -394 445 -36 45 -91 110 -123 144 -76 83 -109 141 -111 197 0 24
-2 44 -2 44 -1 0 -21 -22 -45 -48z"/>
<path d="M7705 1515 c-744 -748 -877 -885 -858 -885 5 0 14 5 21 12 16 16 17
-5 1 -33 -9 -18 -8 -19 8 -10 24 14 771 758 1226 1221 l367 375 143 -150 c160
-168 441 -450 568 -569 46 -43 116 -110 154 -147 l71 -68 28 23 29 23 -490
491 c-270 271 -492 492 -494 492 -2 0 -350 -349 -774 -775z"/>
<path d="M1729 2165 c-40 -44 -105 -111 -144 -150 -475 -472 -829 -856 -776
-842 34 9 53 -2 46 -27 -5 -18 -3 -17 11 5 9 14 31 36 50 48 18 13 54 46 80
74 49 54 429 444 658 675 72 72 134 132 137 132 4 0 23 -20 42 -44 20 -24 60
-68 89 -98 29 -30 146 -153 259 -273 220 -235 430 -443 544 -540 130 -112 390
-345 450 -404 33 -33 61 -58 63 -56 3 2 -18 26 -46 53 -28 26 -61 69 -72 94
-11 26 -25 50 -31 54 -6 3 -9 20 -7 37 2 27 0 31 -16 29 -14 -3 -17 1 -13 12
5 11 -14 36 -60 79 -37 34 -76 71 -88 82 -12 11 -44 38 -71 59 -51 41 -427
415 -503 501 -24 28 -108 115 -185 195 -138 141 -264 280 -318 350 l-27 35
-72 -80z m-857 -987 c-7 -7 -12 -8 -12 -2 0 14 12 26 19 19 2 -3 -1 -11 -7
-17z"/>
<path d="M7742 1313 c-393 -395 -719 -727 -724 -737 -8 -15 -7 -18 5 -13 10 4
17 0 19 -9 2 -13 7 -12 24 4 25 24 70 40 59 22 -24 -38 60 36 305 272 339 326
386 373 744 740 l289 296 66 -67 c36 -36 198 -196 360 -355 l294 -289 18 22
c10 12 27 23 38 24 29 2 13 24 -87 126 -48 48 -217 220 -375 384 -159 163
-296 297 -305 297 -9 0 -337 -323 -730 -717z"/>
<path d="M1702 1862 c-42 -43 -174 -181 -292 -306 -229 -244 -310 -330 -366
-386 -37 -39 -42 -50 -19 -50 8 0 15 -3 15 -6 0 -11 -23 -49 -34 -56 -7 -5 -7
-8 -1 -8 6 0 182 169 393 375 210 206 386 375 390 375 4 0 16 -16 27 -35 26
-45 755 -780 755 -762 0 24 28 28 73 11 81 -30 84 -29 42 11 -303 292 -454
446 -775 793 -63 67 -118 122 -123 122 -5 0 -43 -35 -85 -78z"/>
<path d="M4939 1788 c-35 -40 -184 -197 -330 -348 -259 -268 -393 -412 -514
-555 -32 -38 -84 -97 -114 -130 -31 -34 -94 -103 -141 -155 l-84 -95 69 65
c38 36 80 75 93 88 13 12 28 22 34 22 6 0 8 3 5 7 -15 14 40 28 86 23 26 -4
47 -3 47 1 0 3 9 9 19 12 15 4 12 -5 -16 -42 -20 -25 -40 -49 -46 -53 -6 -4
-9 -10 -6 -13 7 -7 111 100 290 299 74 82 177 195 229 250 52 56 154 166 227
246 117 129 290 293 307 291 4 0 23 -22 43 -48 20 -26 66 -82 103 -123 36 -41
106 -124 155 -185 49 -60 141 -169 204 -241 64 -71 147 -166 185 -210 94 -109
126 -133 175 -137 23 -2 41 -1 41 1 0 7 -58 79 -239 297 -167 201 -208 246
-382 430 -104 109 -239 266 -251 290 -5 11 -29 30 -53 42 -39 19 -44 19 -59 5
-20 -21 -31 -10 -16 17 19 36 4 24 -61 -51z"/>
<path d="M8335 1618 c-72 -68 -179 -177 -240 -243 -128 -139 -472 -482 -660
-658 -71 -67 -132 -125 -134 -130 -2 -5 15 3 38 17 22 14 45 26 50 26 23 0 21
-24 -5 -53 l-29 -32 30 25 c159 135 919 865 1038 998 16 17 33 32 38 32 13 0
66 -48 239 -215 216 -209 222 -215 230 -215 4 0 11 -7 14 -16 3 -8 10 -12 16
-9 7 4 7 13 0 26 -10 17 -7 19 20 19 16 0 30 -4 30 -10 0 -5 -7 -10 -17 -10
-28 0 -5 -13 26 -15 l30 -2 -26 31 c-14 17 -83 92 -153 166 -69 74 -149 160
-176 190 -61 68 -199 194 -217 198 -7 1 -71 -53 -142 -120z m-900 -972 c-18
-26 -35 -26 -35 0 0 13 40 36 48 29 2 -2 -4 -15 -13 -29z"/>
<path d="M1744 1622 c-46 -37 -498 -491 -594 -597 l-45 -49 44 37 c66 55 80
48 36 -17 -13 -20 -21 -36 -17 -36 4 0 82 76 173 168 91 93 228 225 305 295
l139 126 17 -33 c9 -18 56 -69 105 -113 48 -44 133 -127 188 -184 55 -56 141
-145 192 -197 l91 -94 21 21 c27 27 26 28 -6 60 -16 15 -80 85 -143 156 -134
150 -235 258 -341 364 -42 42 -85 89 -95 104 l-20 29 -50 -40z"/>
<path d="M5103 1525 c0 -22 2 -30 4 -17 2 12 2 30 0 40 -3 9 -5 -1 -4 -23z"/>
<path d="M8338 1347 c-68 -67 -216 -217 -329 -332 -204 -208 -206 -210 -197
-242 5 -18 12 -33 16 -33 4 0 102 93 217 206 238 234 410 394 422 394 5 0 49
-41 98 -91 116 -117 227 -216 219 -195 -3 9 -11 16 -17 16 -6 0 0 11 13 25 19
20 26 23 38 12 13 -10 14 -9 5 8 -14 26 -342 355 -353 355 -5 0 -65 -55 -132
-123z"/>
<path d="M5070 1445 c-37 -20 -310 -304 -515 -535 -99 -112 -229 -254 -290
-315 -174 -176 -169 -177 23 -8 37 33 62 46 83 46 17 0 29 6 29 14 0 17 37 17
43 1 3 -9 17 0 38 22 18 19 69 73 114 120 44 47 114 125 155 175 77 92 328
355 339 355 3 0 22 -24 41 -52 19 -29 76 -95 125 -148 50 -52 135 -146 190
-209 55 -63 124 -134 154 -157 50 -39 56 -41 67 -26 8 9 14 23 14 29 0 7 -48
68 -107 136 -60 69 -162 187 -228 263 -66 76 -150 170 -186 209 -37 38 -64 76
-62 83 5 14 6 14 -27 -3z"/>
<path d="M1715 1361 c-181 -177 -325 -329 -302 -318 15 6 27 15 27 20 0 4 5 7
10 7 6 0 10 -12 10 -26 0 -16 -4 -23 -12 -18 -7 4 -8 3 -4 -4 4 -6 -2 -20 -14
-32 -11 -11 -17 -20 -14 -20 3 0 87 79 187 175 163 157 182 173 192 155 5 -10
48 -59 95 -107 47 -48 118 -125 158 -170 54 -61 78 -80 90 -75 14 5 12 7 -8
12 -14 3 -20 9 -14 13 6 3 25 2 43 -3 l32 -9 -33 42 c-72 93 -232 269 -298
329 -38 35 -70 69 -70 76 0 21 -14 13 -75 -47z"/>
<path d="M549 1224 c-13 -15 -18 -25 -10 -22 13 4 49 48 39 48 -2 0 -15 -12
-29 -26z"/>
<path d="M8455 1196 c-11 -8 -99 -96 -195 -197 -96 -101 -164 -175 -151 -164
14 11 33 27 43 35 10 8 38 34 61 58 24 23 50 42 59 42 8 0 32 11 52 25 20 14
44 25 52 25 8 0 13 4 10 9 -3 4 10 17 29 27 19 10 35 22 35 27 0 12 30 -8 74
-48 44 -40 56 -43 56 -15 0 22 15 27 23 8 3 -8 6 -5 6 6 1 13 6 16 19 12 9 -4
-21 31 -68 79 -46 47 -85 85 -85 85 0 0 -9 -6 -20 -14z"/>
<path d="M5112 1160 c0 -19 2 -27 5 -17 2 9 2 25 0 35 -3 9 -5 1 -5 -18z"/>
<path d="M1716 1110 c-48 -46 -63 -66 -56 -75 7 -9 7 -21 0 -40 -6 -15 -9 -29
-8 -31 2 -1 33 24 70 57 l67 60 31 -33 c29 -32 31 -32 45 -14 16 21 12 27 -54
105 l-29 35 -66 -64z"/>
<path d="M8997 1123 c-4 -3 -7 -11 -7 -17 0 -6 5 -5 12 2 6 6 9 14 7 17 -3 3
-9 2 -12 -2z"/>
<path d="M5048 1039 c-46 -39 -358 -382 -358 -393 0 -12 43 1 54 16 7 9 31 22
54 29 23 6 42 16 42 21 0 5 5 6 10 3 6 -4 7 -12 4 -18 -4 -7 43 39 105 100 91
91 116 111 130 104 9 -5 50 -45 90 -90 63 -68 81 -81 121 -91 25 -6 51 -10 56
-8 5 1 20 -4 33 -11 19 -10 13 1 -24 50 -106 141 -137 180 -178 221 -23 24
-54 58 -67 75 l-25 33 -47 -41z"/>
<path d="M2618 1003 c7 -3 16 -2 19 1 4 3 -2 6 -13 5 -11 0 -14 -3 -6 -6z"/>
<path d="M1339 983 c-13 -16 -12 -17 4 -4 16 13 21 21 13 21 -2 0 -10 -8 -17
-17z"/>
<path d="M8460 904 c0 -8 5 -12 10 -9 6 3 10 10 10 16 0 5 -4 9 -10 9 -5 0
-10 -7 -10 -16z"/>
<path d="M5084 668 c-4 -7 6 -23 26 -40 48 -40 57 -35 20 12 -35 44 -36 45
-46 28z"/>
<path d="M5034 628 l-29 -33 33 29 c17 17 32 31 32 33 0 8 -8 1 -36 -29z"/>
<path d="M4409 608 c-12 -23 -12 -23 10 -4 23 21 26 26 11 26 -5 0 -15 -10
-21 -22z"/>
<path d="M3587 613 c-4 -3 -7 -13 -7 -21 0 -18 13 -7 16 13 2 17 1 18 -9 8z"/>
</g>
</svg>
